<svg width="700" height="431" viewBox="0 0 700 431" fill="none" xmlns="http://www.w3.org/2000/svg">
<rect width="700" height="431" fill="white"/>
<path d="M269.342 179.696C273.292 179.696 276.493 176.583 276.493 172.744C276.493 168.904 273.292 165.791 269.342 165.791C265.393 165.791 262.191 168.904 262.191 172.744C262.191 176.583 265.393 179.696 269.342 179.696Z" fill="#E6E6E6"/>
<path d="M49.5037 350.362C49.5037 350.362 -7.86073 324.687 12.2914 306.883C32.4434 289.078 49.5037 350.362 49.5037 350.362Z" fill="#E6E6E6"/>
<path d="M48.5053 356.353C48.5053 356.353 22.1384 272.125 60.9646 276.153C99.7907 280.181 48.5053 356.353 48.5053 356.353Z" fill="#E6E6E6"/>
<path d="M29.2809 348.883L30.3876 362.973L30.4052 363.216C30.4041 365.416 30.5184 367.615 30.7477 369.804C32.2496 384.176 38.705 390.725 46.2496 390.725C53.7941 390.725 59.9685 384.176 61.4704 369.804C61.6997 367.615 61.814 365.416 61.8129 363.216L61.8217 363.02L61.8261 362.973L62.9372 348.883H29.2809Z" fill="#E6E6E6"/>
<path d="M61.8261 362.973L61.8217 363.02L61.8129 363.216C61.814 365.416 61.6996 367.615 61.4704 369.804H30.7477C30.5184 367.615 30.4041 365.416 30.4052 363.216L30.3876 362.973H61.8261Z" fill="white"/>
<path d="M146.461 177.675V158.512H143.397V177.675C142.517 178.021 141.789 178.653 141.337 179.463C140.885 180.274 140.737 181.212 140.918 182.117C141.099 183.022 141.598 183.837 142.33 184.424C143.062 185.01 143.981 185.331 144.929 185.331C145.877 185.331 146.796 185.01 147.528 184.424C148.26 183.837 148.759 183.022 148.94 182.117C149.121 181.212 148.973 180.274 148.521 179.463C148.068 178.653 147.34 178.021 146.461 177.675Z" fill="#E6E6E6"/>
<path d="M153.612 371.062H132.67V123.749H124.497V371.062H103.555C101.073 371.062 98.6157 371.537 96.3228 372.461C94.0298 373.384 91.9464 374.738 90.1915 376.444C88.4365 378.15 87.0444 380.176 86.0947 382.405C85.1449 384.634 84.6561 387.024 84.6561 389.437V389.437H172.511V389.437C172.511 387.024 172.023 384.634 171.073 382.405C170.123 380.176 168.731 378.15 166.976 376.444C165.221 374.738 163.138 373.384 160.845 372.461C158.552 371.537 156.094 371.062 153.612 371.062V371.062Z" fill="#E6E6E6"/>
<path d="M84.6985 160.499H172.469L167.102 95.2734C166.906 93.0243 165.851 90.928 164.145 89.3969C162.439 87.8658 160.206 87.0108 157.884 87H99.2833C96.9617 87.0108 94.7283 87.8658 93.0225 89.3969C91.3167 90.928 90.2619 93.0243 90.0657 95.2734L84.6985 160.499Z" fill="#00FFFE"/>
<path d="M206.907 274.977C206.082 274.844 205.237 274.871 204.422 275.058C203.608 275.244 202.839 275.586 202.162 276.064C201.484 276.542 200.911 277.146 200.475 277.84C200.04 278.535 199.751 279.307 199.624 280.112L197.153 295.879L205.561 298.047L211.722 283.357C212.08 282.503 212.235 281.582 212.177 280.662C212.119 279.742 211.849 278.846 211.387 278.041C210.925 277.237 210.282 276.543 209.506 276.013C208.731 275.483 207.843 275.129 206.907 274.977Z" fill="#A0616A"/>
<path d="M206.75 295.849C211.416 313.877 209.408 330.367 192.033 343.314C171.193 337.728 157.333 324.253 148.876 304.668C148.35 303.451 148.084 302.142 148.093 300.821C148.102 299.501 148.385 298.195 148.927 296.984C149.469 295.773 150.258 294.682 151.246 293.775C152.234 292.869 153.4 292.166 154.675 291.71V291.71C156.591 291.026 158.675 290.924 160.651 291.419C162.627 291.915 164.402 292.983 165.738 294.483L186.186 317.428L195.778 294.291L206.75 295.849Z" fill="#00FFFE"/>
<path d="M313.525 390.433C294.497 389.451 282.676 383.098 279.814 370.072L282.878 364.61L317.967 380.151C318.852 380.543 319.598 381.183 320.109 381.988C320.62 382.794 320.873 383.729 320.836 384.674C320.799 385.62 320.474 386.534 319.901 387.299C319.329 388.065 318.535 388.647 317.621 388.973L313.525 390.433Z" fill="#E6E6E6"/>
<path d="M298.822 390.564C288.935 390.273 279.427 390.363 270.418 390.956C268.838 391.061 267.279 390.556 266.079 389.55C264.879 388.545 264.135 387.12 264.009 385.585L263.468 379.011L255.806 367.093L262.447 360.637C273.606 371.442 285.844 380.519 300.379 385.914C300.846 386.225 301.197 386.675 301.38 387.196C301.562 387.717 301.566 388.282 301.39 388.805C301.215 389.329 300.87 389.783 300.407 390.1C299.944 390.417 299.388 390.58 298.822 390.564V390.564Z" fill="#E6E6E6"/>
<path d="M245.08 343.752C232.455 365.715 220.039 380.521 203.706 388.447C183.612 394.895 168.927 386.352 157.48 368.831L190.681 347.476L195.534 352.194L239.511 319.657C240.586 318.668 242.018 318.131 243.497 318.163C244.976 318.195 246.382 318.794 247.41 319.828L284.921 364.61L280.324 372.059L245.08 343.752Z" fill="#2F2E41"/>
<path d="M256.317 369.576L238.951 343.752L243.037 336.303L266.022 359.643L256.317 369.576Z" fill="#2F2E41"/>
<path d="M156.203 287.138C165.794 287.138 173.57 279.578 173.57 270.253C173.57 260.928 165.794 253.368 156.203 253.368C146.612 253.368 138.836 260.928 138.836 270.253C138.836 279.578 146.612 287.138 156.203 287.138Z" fill="#A0616A"/>
<path d="M160.8 301.54L141.39 295.084C144.262 290.646 145.521 285.401 144.966 280.186H160.8C159.9 287.763 159.765 294.95 160.8 301.54Z" fill="#A0616A"/>
<path d="M202.174 346.732C199.264 347.893 199.051 351.659 196.3 352.939C182.999 359.126 168.927 364.147 159.268 373.052C136.695 358.149 115.772 311.861 142.923 291.608C152.19 296.88 160.469 300.653 160.289 291.608L202.174 346.732Z" fill="#00FFFE"/>
<path opacity="0.2" d="M190.426 326.867L180.976 323.639L162.332 337.792L153.975 308.54C153.395 306.512 152.456 307.54 151.107 308.949C149.702 307.684 147.953 306.836 146.068 306.506C144.183 306.175 142.24 306.375 140.468 307.083C138.696 307.791 137.169 308.976 136.068 310.5C134.966 312.023 134.335 313.821 134.25 315.682C133.256 336.9 139.837 354.851 156.203 368.582C177.609 364.126 186.693 350.066 190.426 331.833L189.414 331.177C189.787 329.768 190.124 328.331 190.426 326.867Z" fill="black"/>
<path d="M158.54 248.042C164.268 249.314 170.789 251.117 171.154 252.793C177.047 254.237 181.495 257.695 182.403 262.967C182.479 263.423 182.451 263.889 182.322 264.333C182.192 264.777 181.964 265.188 181.653 265.537C181.343 265.886 180.957 266.165 180.524 266.353C180.09 266.542 179.62 266.636 179.145 266.628C175.94 266.588 171.129 266.29 167.953 265C158.724 270.781 157.175 285.817 161.206 296.052L154.864 295.487L148.303 276.813L146.627 294.753L132.155 292.892L134.019 270.016C134.592 264.624 136.479 259.443 139.524 254.903C139.84 254.447 140.186 254.011 140.56 253.598C142.762 251.18 145.596 249.386 148.761 248.408C151.927 247.43 155.306 247.303 158.54 248.042V248.042Z" fill="#2F2E41"/>
<path d="M191.19 304.729L207.085 322.896L230.926 295.54L214.817 276.536L191.19 304.729Z" fill="#3F3D56"/>
<path d="M226.845 296.166L207.944 281.131C209.018 278.625 214.173 279.46 214.173 279.46L228.968 294.044C229.483 294.552 229.925 295.125 230.282 295.749V295.749L226.845 296.166Z" fill="#F2F2F2"/>
<path d="M227.704 295.122L206.225 278.834L182.384 313.917L204.829 328.639C206.977 329.474 209.125 328.013 209.125 328.013L231.033 295.435L227.704 295.122Z" fill="#3F3D56"/>
<path d="M208.904 283.918L208.701 284.193L222.448 293.797L222.651 293.522L208.904 283.918Z" fill="#00FFFE"/>
<path d="M222.834 297.117L204.791 323.638L205.082 323.825L223.124 297.304L222.834 297.117Z" fill="#00FFFE"/>
<path d="M188.288 313.987L188.082 314.26L202.684 324.705L202.89 324.433L188.288 313.987Z" fill="#00FFFE"/>
<path d="M206.297 284.375L187.611 310.479L187.896 310.672L206.583 284.569L206.297 284.375Z" fill="#00FFFE"/>
<path d="M212.069 279.253L211.924 279.407L228.92 294.573L229.065 294.419L212.069 279.253Z" fill="#B3B3B3"/>
<path d="M210.653 279.383L210.511 279.54L228.274 294.786L228.417 294.63L210.653 279.383Z" fill="#B3B3B3"/>
<path d="M209.542 279.687L209.405 279.848L227.844 294.791L227.982 294.631L209.542 279.687Z" fill="#B3B3B3"/>
<path d="M199.77 310.062C199.083 309.597 198.308 309.27 197.489 309.099C196.671 308.928 195.826 308.917 195.003 309.066C194.18 309.215 193.396 309.522 192.696 309.968C191.997 310.414 191.395 310.991 190.926 311.666L181.742 324.881L188.383 330.343L200.425 319.639C201.125 319.017 201.672 318.249 202.025 317.394C202.378 316.539 202.529 315.617 202.466 314.697C202.403 313.777 202.128 312.883 201.661 312.081C201.195 311.278 200.548 310.588 199.77 310.062V310.062Z" fill="#A0616A"/>
<path d="M190.426 328.853C186.693 347.086 177.609 361.147 156.203 365.603C139.837 351.872 133.256 333.92 134.25 312.702C134.312 311.383 134.648 310.089 135.238 308.9C135.829 307.71 136.661 306.649 137.684 305.781C138.708 304.913 139.902 304.255 141.194 303.848C142.486 303.441 143.849 303.292 145.202 303.412V303.412C147.235 303.591 149.163 304.368 150.73 305.639C152.297 306.91 153.429 308.615 153.975 310.527L162.332 339.779L181.2 322.873L190.426 328.853Z" fill="#00FFFE"/>
<path d="M232.566 132.443C232.295 132.444 232.035 132.548 231.844 132.735C231.652 132.921 231.544 133.173 231.544 133.437V210.908C231.544 211.171 231.652 211.424 231.844 211.61C232.035 211.796 232.295 211.901 232.566 211.901H298.968C299.239 211.901 299.499 211.796 299.69 211.61C299.882 211.424 299.989 211.171 299.99 210.908V133.437C299.989 133.173 299.882 132.921 299.69 132.735C299.499 132.548 299.239 132.444 298.968 132.443H232.566Z" fill="#E6E6E6"/>
<path d="M239.461 204.204H292.072V140.141H239.461V204.204Z" fill="white"/>
<path d="M343.117 152.805C342.955 152.805 342.8 152.867 342.686 152.978C342.571 153.09 342.507 153.24 342.507 153.397V191.941C342.507 192.098 342.571 192.248 342.686 192.36C342.8 192.471 342.955 192.533 343.117 192.533H390.689C390.85 192.533 391.005 192.471 391.12 192.36C391.234 192.248 391.298 192.098 391.298 191.941V153.398C391.298 153.24 391.234 153.09 391.12 152.978C391.005 152.867 390.85 152.805 390.689 152.805L343.117 152.805Z" fill="#E6E6E6"/>
<path d="M347.234 157.4V187.938H386.572V157.4H347.234Z" fill="white"/>
<path d="M275.056 137.906H256.477C256.028 137.908 255.587 137.794 255.198 137.577C254.808 137.359 254.485 137.046 254.261 136.667C254.036 136.289 253.918 135.86 253.919 135.424C253.92 134.987 254.04 134.559 254.266 134.182L263.555 118.538C263.563 118.525 263.571 118.513 263.578 118.5C263.781 118.167 264.062 117.886 264.398 117.679C264.735 117.472 265.116 117.345 265.512 117.309L265.526 117.307C265.605 117.3 265.686 117.297 265.767 117.297C266.216 117.294 266.657 117.408 267.046 117.626C267.435 117.844 267.756 118.159 267.979 118.538L277.268 134.182C277.492 134.559 277.61 134.987 277.61 135.423C277.61 135.859 277.492 136.287 277.268 136.665C277.044 137.042 276.721 137.355 276.333 137.573C275.945 137.791 275.505 137.906 275.056 137.906V137.906ZM255.965 135.421C255.965 135.509 255.99 135.595 256.035 135.671C256.079 135.748 256.143 135.811 256.221 135.854C256.299 135.898 256.388 135.921 256.477 135.92H275.056C275.146 135.921 275.235 135.898 275.312 135.854C275.39 135.811 275.455 135.748 275.499 135.671C275.544 135.595 275.568 135.509 275.569 135.421C275.568 135.334 275.544 135.25 275.499 135.175L266.209 119.532C266.164 119.456 266.1 119.393 266.022 119.35C265.945 119.306 265.856 119.283 265.767 119.283C265.677 119.283 265.589 119.306 265.511 119.35C265.434 119.393 265.369 119.456 265.324 119.532L256.035 135.175C255.989 135.249 255.965 135.334 255.965 135.421V135.421Z" fill="#E6E6E6"/>
<path d="M265.767 122.015C266.613 122.015 267.299 121.348 267.299 120.525C267.299 119.702 266.613 119.035 265.767 119.035C264.921 119.035 264.234 119.702 264.234 120.525C264.234 121.348 264.921 122.015 265.767 122.015Z" fill="#E6E6E6"/>
<path d="M371.939 154.046H361.866C361.623 154.047 361.383 153.985 361.172 153.867C360.961 153.749 360.786 153.579 360.664 153.374C360.543 153.169 360.479 152.937 360.479 152.7C360.48 152.464 360.545 152.231 360.667 152.027L365.704 143.545L365.716 143.524C365.826 143.344 365.978 143.192 366.161 143.079C366.343 142.967 366.55 142.898 366.765 142.879L366.772 142.878C366.815 142.874 366.859 142.872 366.903 142.872C367.146 142.871 367.385 142.932 367.596 143.051C367.807 143.169 367.981 143.34 368.102 143.545L373.138 152.027C373.26 152.231 373.324 152.463 373.324 152.7C373.324 152.936 373.26 153.168 373.138 153.373C373.017 153.578 372.842 153.747 372.631 153.866C372.421 153.984 372.182 154.046 371.939 154.046V154.046ZM361.588 152.698C361.589 152.746 361.602 152.793 361.626 152.834C361.65 152.876 361.685 152.91 361.727 152.934C361.77 152.957 361.817 152.97 361.866 152.969H371.939C371.988 152.97 372.036 152.957 372.078 152.934C372.12 152.91 372.155 152.876 372.179 152.834C372.203 152.793 372.217 152.746 372.217 152.699C372.217 152.652 372.204 152.606 372.179 152.565L367.143 144.084C367.118 144.043 367.083 144.009 367.041 143.985C366.999 143.962 366.951 143.949 366.903 143.949C366.854 143.949 366.806 143.962 366.764 143.985C366.722 144.009 366.687 144.043 366.663 144.084L361.626 152.565C361.602 152.606 361.589 152.652 361.588 152.698V152.698Z" fill="#E6E6E6"/>
<path d="M366.903 145.43C367.361 145.43 367.733 145.069 367.733 144.622C367.733 144.176 367.361 143.815 366.903 143.815C366.444 143.815 366.072 144.176 366.072 144.622C366.072 145.069 366.444 145.43 366.903 145.43Z" fill="#E6E6E6"/>
<path d="M240.063 179.811C240.797 178.172 241.867 176.696 243.207 175.473C244.548 174.25 246.13 173.305 247.859 172.696C249.656 172.021 251.582 171.732 253.505 171.848C255.428 171.965 257.302 172.484 259 173.37C262.986 175.426 266.173 178.66 270.221 180.628C274.157 182.524 278.488 183.517 282.881 183.528C287.855 183.566 292.751 182.33 297.078 179.946C297.246 179.842 297.366 179.68 297.413 179.492C297.46 179.304 297.431 179.106 297.33 178.939C297.23 178.772 297.067 178.65 296.875 178.597C296.684 178.545 296.479 178.567 296.304 178.659C292.383 180.796 287.978 181.956 283.484 182.036C278.99 182.116 274.545 181.114 270.545 179.119C266.484 177.048 263.266 173.705 259.129 171.765C257.372 170.937 255.464 170.455 253.515 170.349C251.566 170.242 249.614 170.513 247.774 171.146C245.727 171.813 243.85 172.895 242.266 174.321C240.682 175.746 239.428 177.483 238.585 179.415C238.214 180.302 239.695 180.688 240.063 179.811V179.811Z" fill="#E6E6E6"/>
<path d="M238.852 193.737C247.356 191.891 256.177 191.921 264.668 193.824C272.21 195.525 279.996 198.584 287.773 196.302C291.247 195.283 294.431 193.244 296.216 190.106C296.693 189.267 295.37 188.514 294.893 189.354C291.532 195.262 283.659 196.259 277.441 195.29C273.286 194.642 269.282 193.343 265.192 192.414C256.4 190.41 247.255 190.371 238.445 192.3C237.483 192.509 237.89 193.946 238.852 193.737V193.737Z" fill="#E6E6E6"/>
<path d="M238.3 160.435C246.454 159.087 254.805 159.376 262.84 161.284C270.345 163.072 277.682 167.157 285.619 166.451C289.294 166.125 292.931 164.811 295.428 162.078C296.08 161.363 295 160.306 294.344 161.024C292.191 163.382 289.089 164.604 285.906 164.934C282.238 165.314 278.634 164.576 275.142 163.526C271.278 162.364 267.523 160.891 263.594 159.931C255.188 157.879 246.433 157.561 237.893 158.998C236.923 159.159 237.334 160.595 238.3 160.435V160.435Z" fill="#E6E6E6"/>
<path d="M354.084 156.897C357.607 160.404 360.037 164.81 361.093 169.604C361.905 173.417 361.814 177.36 360.825 181.134C359.837 184.908 357.978 188.414 355.389 191.386C354.754 192.112 355.833 193.171 356.472 192.439C359.999 188.399 362.252 183.454 362.959 178.2C363.474 174.143 363.04 170.027 361.692 166.156C360.343 162.285 358.112 158.76 355.168 155.843C354.476 155.158 353.393 156.211 354.084 156.897Z" fill="#E6E6E6"/>
<path d="M377.075 153.718C372.379 157.066 369.75 162.472 369.38 168.062C368.995 173.88 371.276 179.497 374.951 184.014C377.095 186.614 379.656 188.862 382.535 190.67C383.363 191.197 384.132 189.907 383.309 189.384C378.617 186.399 374.603 182.16 372.471 177.072C371.432 174.656 370.893 172.064 370.886 169.444C370.878 166.825 371.402 164.23 372.427 161.808C373.575 159.109 375.447 156.759 377.848 155.004C378.635 154.443 377.872 153.15 377.075 153.718V153.718Z" fill="#E6E6E6"/>
<path d="M671.079 356.563C671.079 356.563 626.666 336.685 642.268 322.9C657.87 309.116 671.079 356.563 671.079 356.563Z" fill="#E6E6E6"/>
<path d="M670.306 361.201C670.306 361.201 649.892 295.99 679.952 299.108C710.012 302.227 670.306 361.201 670.306 361.201Z" fill="#E6E6E6"/>
<path d="M655.422 355.417L656.279 366.326L656.292 366.514C656.291 368.218 656.38 369.92 656.557 371.615C657.72 382.741 662.718 387.812 668.559 387.812C674.4 387.812 679.181 382.741 680.343 371.615C680.521 369.92 680.609 368.218 680.609 366.514L680.615 366.362L680.619 366.326L681.479 355.417H655.422Z" fill="#E6E6E6"/>
<path d="M680.619 366.326L680.615 366.362L680.609 366.514C680.609 368.218 680.521 369.92 680.343 371.615H656.557C656.38 369.92 656.291 368.218 656.292 366.514L656.279 366.326H680.619Z" fill="white"/>
</svg>
