<svg width="384" height="304" viewBox="0 0 384 304" fill="none" xmlns="http://www.w3.org/2000/svg">
    <path d="M261.342 92.696C265.292 92.696 268.493 89.583 268.493 85.744C268.493 81.904 265.292 78.791 261.342 78.791C257.393 78.791 254.191 81.904 254.191 85.744C254.191 89.583 257.393 92.696 261.342 92.696Z" fill="#E6E6E6"/>
    <path d="M41.5037 263.362C41.5037 263.362 -15.8607 237.687 4.29141 219.883C24.4434 202.078 41.5037 263.362 41.5037 263.362Z" fill="white"/>
    <path d="M40.5053 269.353C40.5053 269.353 14.1384 185.125 52.9646 189.153C91.7907 193.181 40.5053 269.353 40.5053 269.353Z" fill="white"/>
    <path d="M21.2809 261.883L22.3876 275.973L22.4052 276.216C22.4041 278.416 22.5184 280.615 22.7477 282.804C24.2496 297.176 30.705 303.725 38.2496 303.725C45.7941 303.725 51.9685 297.176 53.4704 282.804C53.6997 280.615 53.814 278.416 53.8129 276.216L53.8217 276.02L53.8261 275.973L54.9372 261.883H21.2809Z" fill="white"/>
    <path d="M53.8261 275.973L53.8217 276.02L53.8129 276.216C53.814 278.416 53.6996 280.615 53.4704 282.804H22.7477C22.5184 280.615 22.4041 278.416 22.4052 276.216L22.3876 275.973H53.8261Z" fill="#DADFDF"/>
    <path d="M138.461 90.675V71.512H135.397V90.675C134.517 91.021 133.789 91.653 133.337 92.463C132.885 93.274 132.737 94.212 132.918 95.117C133.099 96.022 133.598 96.837 134.33 97.424C135.062 98.01 135.981 98.331 136.929 98.331C137.877 98.331 138.796 98.01 139.528 97.424C140.26 96.837 140.759 96.022 140.94 95.117C141.121 94.212 140.973 93.274 140.521 92.463C140.068 91.653 139.34 91.021 138.461 90.675Z" fill="#E6E6E6"/>
    <path d="M145.612 284.062H124.67V36.749H116.497V284.062H95.555C93.073 284.062 90.6157 284.537 88.3228 285.461C86.0298 286.384 83.9464 287.738 82.1915 289.444C80.4365 291.15 79.0444 293.176 78.0947 295.405C77.1449 297.634 76.6561 300.024 76.6561 302.437H164.511C164.511 300.024 164.023 297.634 163.073 295.405C162.123 293.176 160.731 291.15 158.976 289.444C157.221 287.738 155.138 286.384 152.845 285.461C150.552 284.537 148.094 284.062 145.612 284.062Z" fill="white"/>
    <path d="M76.6985 73.499H164.469L159.102 8.2734C158.906 6.0243 157.851 3.928 156.145 2.3969C154.439 0.865796 152.206 0.0108 149.884 0H91.2833C88.9617 0.0108 86.7283 0.865796 85.0225 2.3969C83.3167 3.928 82.2619 6.0243 82.0657 8.2734L76.6985 73.499Z" fill="#00FFFE"/>
    <path d="M198.907 187.977C198.082 187.844 197.237 187.871 196.422 188.058C195.608 188.244 194.839 188.586 194.162 189.064C193.484 189.542 192.911 190.146 192.475 190.84C192.04 191.535 191.751 192.307 191.624 193.112L189.153 208.879L197.561 211.047L203.722 196.357C204.08 195.503 204.235 194.582 204.177 193.662C204.119 192.742 203.849 191.846 203.387 191.041C202.925 190.237 202.282 189.543 201.506 189.013C200.731 188.483 199.843 188.129 198.907 187.977Z" fill="#A0616A"/>
    <path d="M198.75 208.849C203.416 226.877 201.408 243.367 184.033 256.314C163.193 250.728 149.333 237.253 140.876 217.668C140.35 216.451 140.084 215.142 140.093 213.821C140.102 212.501 140.385 211.195 140.927 209.984C141.469 208.773 142.258 207.682 143.246 206.775C144.234 205.869 145.4 205.166 146.675 204.71C148.591 204.026 150.675 203.924 152.651 204.419C154.627 204.915 156.402 205.983 157.738 207.483L178.186 230.428L187.778 207.291L198.75 208.849Z" fill="#00FFFE"/>
    <path d="M305.525 303.433C286.497 302.451 274.676 296.098 271.814 283.072L274.878 277.61L309.967 293.151C310.852 293.543 311.598 294.183 312.109 294.988C312.62 295.794 312.873 296.729 312.836 297.674C312.799 298.62 312.474 299.534 311.901 300.299C311.329 301.065 310.535 301.647 309.621 301.973L305.525 303.433Z" fill="white"/>
    <path d="M290.822 303.564C280.935 303.273 271.427 303.363 262.418 303.956C260.838 304.061 259.279 303.556 258.079 302.55C256.879 301.545 256.135 300.12 256.009 298.585L255.468 292.011L247.806 280.093L254.447 273.637C265.606 284.442 277.844 293.519 292.379 298.914C292.846 299.225 293.197 299.675 293.38 300.196C293.562 300.717 293.566 301.282 293.39 301.805C293.215 302.329 292.87 302.783 292.407 303.1C291.944 303.417 291.388 303.58 290.822 303.564Z" fill="white"/>
    <path d="M237.08 256.752C224.455 278.715 212.039 293.521 195.706 301.447C175.612 307.895 160.927 299.352 149.48 281.831L182.681 260.476L187.534 265.194L231.511 232.657C232.586 231.668 234.018 231.131 235.497 231.163C236.976 231.195 238.382 231.794 239.41 232.828L276.921 277.61L272.324 285.059L237.08 256.752Z" fill="#2F2E41"/>
    <path d="M248.317 282.576L230.951 256.752L235.037 249.303L258.022 272.643L248.317 282.576Z" fill="#2F2E41"/>
    <path d="M148.203 200.138C157.794 200.138 165.57 192.578 165.57 183.253C165.57 173.928 157.794 166.368 148.203 166.368C138.612 166.368 130.836 173.928 130.836 183.253C130.836 192.578 138.612 200.138 148.203 200.138Z" fill="#A0616A"/>
    <path d="M152.8 214.54L133.39 208.084C136.262 203.646 137.521 198.401 136.966 193.186H152.8C151.9 200.763 151.765 207.95 152.8 214.54Z" fill="#A0616A"/>
    <path d="M194.174 259.732C191.264 260.893 191.051 264.659 188.3 265.939C174.999 272.126 160.927 277.147 151.268 286.052C128.695 271.149 107.772 224.861 134.923 204.608C144.19 209.88 152.469 213.653 152.289 204.608L194.174 259.732Z" fill="#00FFFE"/>
    <path opacity="0.2" d="M182.426 239.867L172.976 236.639L154.332 250.792L145.975 221.54C145.395 219.512 144.456 220.54 143.107 221.949C141.702 220.684 139.953 219.836 138.068 219.506C136.183 219.175 134.24 219.375 132.468 220.083C130.696 220.791 129.169 221.976 128.068 223.5C126.966 225.023 126.335 226.821 126.25 228.682C125.256 249.9 131.837 267.851 148.203 281.582C169.609 277.126 178.693 263.066 182.426 244.833L181.414 244.177C181.787 242.768 182.124 241.331 182.426 239.867Z" fill="black"/>
    <path d="M150.54 161.042C156.268 162.314 162.789 164.117 163.154 165.793C169.047 167.237 173.495 170.695 174.403 175.967C174.479 176.423 174.451 176.889 174.322 177.333C174.192 177.777 173.964 178.188 173.653 178.537C173.343 178.886 172.957 179.165 172.524 179.353C172.09 179.542 171.62 179.636 171.145 179.628C167.94 179.588 163.129 179.29 159.953 178C150.724 183.781 149.175 198.817 153.206 209.052L146.864 208.487L140.303 189.813L138.627 207.753L124.155 205.892L126.019 183.016C126.592 177.624 128.479 172.443 131.524 167.903C131.84 167.447 132.186 167.011 132.56 166.598C134.762 164.18 137.596 162.386 140.761 161.408C143.927 160.43 147.306 160.303 150.54 161.042Z" fill="#2F2E41"/>
    <path d="M183.19 217.729L199.085 235.896L222.926 208.54L206.817 189.536L183.19 217.729Z" fill="#3F3D56"/>
    <path d="M218.845 209.166L199.944 194.131C201.018 191.625 206.173 192.46 206.173 192.46L220.968 207.044C221.483 207.552 221.925 208.125 222.282 208.749L218.845 209.166Z" fill="#F2F2F2"/>
    <path d="M219.704 208.122L198.225 191.834L174.384 226.917L196.829 241.639C198.977 242.474 201.125 241.013 201.125 241.013L223.033 208.435L219.704 208.122Z" fill="#3F3D56"/>
    <path d="M200.904 196.918L200.701 197.193L214.448 206.797L214.651 206.522L200.904 196.918Z" fill="#00FFFE"/>
    <path d="M214.834 210.117L196.791 236.638L197.082 236.825L215.124 210.304L214.834 210.117Z" fill="#00FFFE"/>
    <path d="M180.288 226.987L180.082 227.26L194.684 237.705L194.89 237.433L180.288 226.987Z" fill="#00FFFE"/>
    <path d="M198.297 197.375L179.611 223.479L179.896 223.672L198.583 197.569L198.297 197.375Z" fill="#00FFFE"/>
    <path d="M204.069 192.253L203.924 192.407L220.92 207.573L221.065 207.419L204.069 192.253Z" fill="#B3B3B3"/>
    <path d="M202.653 192.383L202.511 192.54L220.274 207.786L220.417 207.63L202.653 192.383Z" fill="#B3B3B3"/>
    <path d="M201.542 192.687L201.405 192.848L219.844 207.791L219.982 207.631L201.542 192.687Z" fill="#B3B3B3"/>
    <path d="M191.77 223.062C191.083 222.597 190.308 222.27 189.489 222.099C188.671 221.928 187.826 221.917 187.003 222.066C186.18 222.215 185.396 222.522 184.696 222.968C183.997 223.414 183.395 223.991 182.926 224.666L173.742 237.881L180.383 243.343L192.425 232.639C193.125 232.017 193.672 231.249 194.025 230.394C194.378 229.539 194.529 228.617 194.466 227.697C194.403 226.777 194.128 225.883 193.661 225.081C193.195 224.278 192.548 223.588 191.77 223.062Z" fill="#A0616A"/>
    <path d="M182.426 241.853C178.693 260.086 169.609 274.147 148.203 278.603C131.837 264.872 125.256 246.92 126.25 225.702C126.312 224.383 126.648 223.089 127.238 221.9C127.829 220.71 128.661 219.649 129.684 218.781C130.708 217.913 131.902 217.255 133.194 216.848C134.486 216.441 135.849 216.292 137.202 216.412C139.235 216.591 141.163 217.368 142.73 218.639C144.297 219.91 145.429 221.615 145.975 223.527L154.332 252.779L173.2 235.873L182.426 241.853Z" fill="#00FFFE"/>
    <path d="M224.566 45.443C224.295 45.444 224.035 45.548 223.844 45.735C223.652 45.921 223.544 46.173 223.544 46.437V123.908C223.544 124.171 223.652 124.424 223.844 124.61C224.035 124.796 224.295 124.901 224.566 124.901H290.968C291.239 124.901 291.499 124.796 291.69 124.61C291.882 124.424 291.989 124.171 291.99 123.908V46.437C291.989 46.173 291.882 45.921 291.69 45.735C291.499 45.548 291.239 45.444 290.968 45.443H224.566Z" fill="white"/>
    <path d="M232.89 118.326L285.451 116.02L282.643 52.0186L230.082 54.325L232.89 118.326Z" fill="#DADFDF"/>
    <path d="M335.117 65.805C334.955 65.805 334.8 65.867 334.686 65.978C334.571 66.09 334.507 66.24 334.507 66.397V104.941C334.507 105.098 334.571 105.248 334.686 105.36C334.8 105.471 334.955 105.533 335.117 105.533H382.689C382.85 105.533 383.005 105.471 383.12 105.36C383.234 105.248 383.298 105.098 383.298 104.941V66.398C383.298 66.24 383.234 66.09 383.12 65.978C383.005 65.867 382.85 65.805 382.689 65.805H335.117Z" fill="white"/>
    <path d="M339.234 70.4V100.938H378.572V70.4H339.234Z" fill="#DADFDF"/>
    <path d="M267.056 50.906H248.477C248.028 50.908 247.587 50.794 247.198 50.577C246.808 50.359 246.485 50.046 246.261 49.667C246.036 49.289 245.918 48.86 245.919 48.424C245.92 47.987 246.04 47.559 246.266 47.182L255.555 31.538C255.563 31.525 255.571 31.513 255.578 31.5C255.781 31.167 256.062 30.886 256.398 30.679C256.735 30.472 257.116 30.345 257.512 30.309L257.526 30.307C257.605 30.3 257.686 30.297 257.767 30.297C258.216 30.294 258.657 30.408 259.046 30.626C259.435 30.844 259.756 31.159 259.979 31.538L269.268 47.182C269.492 47.559 269.61 47.987 269.61 48.423C269.61 48.859 269.492 49.287 269.268 49.665C269.044 50.042 268.721 50.355 268.333 50.573C267.945 50.791 267.505 50.906 267.056 50.906ZM247.965 48.421C247.965 48.509 247.99 48.595 248.035 48.671C248.079 48.748 248.143 48.811 248.221 48.854C248.299 48.898 248.388 48.921 248.477 48.92H267.056C267.146 48.921 267.235 48.898 267.312 48.854C267.39 48.811 267.455 48.748 267.499 48.671C267.544 48.595 267.568 48.509 267.569 48.421C267.568 48.334 267.544 48.25 267.499 48.175L258.209 32.532C258.164 32.456 258.1 32.393 258.022 32.35C257.945 32.306 257.856 32.283 257.767 32.283C257.677 32.283 257.589 32.306 257.511 32.35C257.434 32.393 257.369 32.456 257.324 32.532L248.035 48.175C247.989 48.249 247.965 48.334 247.965 48.421Z" fill="#E6E6E6"/>
    <path d="M257.767 35.015C258.613 35.015 259.299 34.348 259.299 33.525C259.299 32.702 258.613 32.035 257.767 32.035C256.921 32.035 256.234 32.702 256.234 33.525C256.234 34.348 256.921 35.015 257.767 35.015Z" fill="#E6E6E6"/>
    <path d="M363.939 67.046H353.866C353.623 67.047 353.383 66.985 353.172 66.867C352.961 66.749 352.786 66.579 352.664 66.374C352.543 66.169 352.479 65.937 352.479 65.7C352.48 65.464 352.545 65.231 352.667 65.027L357.704 56.545L357.716 56.524C357.826 56.344 357.978 56.192 358.161 56.079C358.343 55.967 358.55 55.898 358.765 55.879L358.772 55.878C358.815 55.874 358.859 55.872 358.903 55.872C359.146 55.871 359.385 55.932 359.596 56.051C359.807 56.169 359.981 56.34 360.102 56.545L365.138 65.027C365.26 65.231 365.324 65.463 365.324 65.7C365.324 65.936 365.26 66.168 365.138 66.373C365.017 66.578 364.842 66.747 364.631 66.866C364.421 66.984 364.182 67.046 363.939 67.046ZM353.588 65.698C353.589 65.746 353.602 65.793 353.626 65.834C353.65 65.876 353.685 65.91 353.727 65.934C353.77 65.957 353.817 65.97 353.866 65.969H363.939C363.988 65.97 364.036 65.957 364.078 65.934C364.12 65.91 364.155 65.876 364.179 65.834C364.203 65.793 364.217 65.746 364.217 65.699C364.217 65.652 364.204 65.606 364.179 65.565L359.143 57.084C359.118 57.043 359.083 57.009 359.041 56.985C358.999 56.962 358.951 56.949 358.903 56.949C358.854 56.949 358.806 56.962 358.764 56.985C358.722 57.009 358.687 57.043 358.663 57.084L353.626 65.565C353.602 65.606 353.589 65.652 353.588 65.698Z" fill="#E6E6E6"/>
    <path d="M358.903 58.43C359.361 58.43 359.733 58.069 359.733 57.622C359.733 57.176 359.361 56.815 358.903 56.815C358.444 56.815 358.072 57.176 358.072 57.622C358.072 58.069 358.444 58.43 358.903 58.43Z" fill="#E6E6E6"/>
    <path d="M232.063 92.811C232.797 91.172 233.867 89.696 235.207 88.473C236.548 87.25 238.13 86.305 239.859 85.696C241.656 85.021 243.582 84.732 245.505 84.848C247.428 84.965 249.302 85.484 251 86.37C254.986 88.426 258.173 91.66 262.221 93.628C266.157 95.524 270.488 96.517 274.881 96.528C279.855 96.566 284.751 95.33 289.078 92.946C289.246 92.842 289.366 92.68 289.413 92.492C289.46 92.304 289.431 92.106 289.33 91.939C289.23 91.772 289.067 91.65 288.875 91.597C288.684 91.545 288.479 91.567 288.304 91.659C284.383 93.796 279.978 94.956 275.484 95.036C270.99 95.116 266.545 94.114 262.545 92.119C258.484 90.048 255.266 86.705 251.129 84.765C249.372 83.937 247.464 83.455 245.515 83.349C243.566 83.242 241.614 83.513 239.774 84.146C237.727 84.813 235.85 85.895 234.266 87.321C232.682 88.746 231.428 90.483 230.585 92.415C230.214 93.302 231.695 93.688 232.063 92.811Z" fill="#E6E6E6"/>
    <path d="M230.852 106.737C239.356 104.891 248.177 104.921 256.668 106.824C264.21 108.525 271.996 111.584 279.773 109.302C283.247 108.283 286.431 106.244 288.216 103.106C288.693 102.267 287.37 101.514 286.893 102.354C283.532 108.262 275.659 109.259 269.441 108.29C265.286 107.642 261.282 106.343 257.192 105.414C248.4 103.41 239.255 103.371 230.445 105.3C229.483 105.509 229.89 106.946 230.852 106.737Z" fill="#E6E6E6"/>
    <path d="M230.3 73.435C238.454 72.087 246.805 72.376 254.84 74.284C262.345 76.072 269.682 80.157 277.619 79.451C281.294 79.125 284.931 77.811 287.428 75.078C288.08 74.363 287 73.306 286.344 74.024C284.191 76.382 281.089 77.604 277.906 77.934C274.238 78.314 270.634 77.576 267.142 76.526C263.278 75.364 259.523 73.891 255.594 72.931C247.188 70.879 238.433 70.561 229.893 71.998C228.923 72.159 229.334 73.595 230.3 73.435Z" fill="#E6E6E6"/>
    <path d="M346.084 69.897C349.607 73.404 352.037 77.81 353.093 82.604C353.905 86.417 353.814 90.36 352.825 94.134C351.837 97.908 349.978 101.414 347.389 104.386C346.754 105.112 347.833 106.171 348.472 105.439C351.999 101.399 354.252 96.454 354.959 91.2C355.474 87.143 355.04 83.027 353.692 79.156C352.343 75.285 350.112 71.76 347.168 68.843C346.476 68.158 345.393 69.211 346.084 69.897Z" fill="#E6E6E6"/>
    <path d="M369.075 66.718C364.379 70.066 361.75 75.472 361.38 81.062C360.995 86.88 363.276 92.497 366.951 97.014C369.095 99.614 371.656 101.862 374.535 103.67C375.363 104.197 376.132 102.907 375.309 102.384C370.617 99.399 366.603 95.16 364.471 90.072C363.432 87.656 362.893 85.064 362.886 82.444C362.878 79.825 363.402 77.23 364.427 74.808C365.575 72.109 367.447 69.759 369.848 68.004C370.635 67.443 369.872 66.15 369.075 66.718Z" fill="#E6E6E6"/>
</svg>