<svg width="257" height="214" viewBox="0 0 257 214" fill="none" xmlns="http://www.w3.org/2000/svg">
    <g clip-path="url(#clip0)">
        <g filter="url(#filter0_d)">
            <path d="M147.301 38.2067C143.754 38.2067 140.234 38.6132 136.803 39.3701C137.442 29.2495 133.889 18.9324 126.092 11.0734C111.625 -3.50449 87.8713 -3.7171 73.1402 10.6034C65.9987 17.547 62.017 26.8293 61.9282 36.7404C61.8394 46.6483 65.6525 55.9974 72.6653 63.0656C80.0627 70.5197 90.0079 74.4005 100.183 74.1637C98.3491 82.2621 99.4185 90.3978 99.4621 90.7104C99.9973 95.914 102.005 102.669 104.586 107.959C106.843 115.508 92.7059 121.18 92.5617 121.236C92.0485 121.439 91.6681 121.882 91.5459 122.42C91.4246 122.958 91.5753 123.521 91.9508 123.925C102.137 134.882 116.042 127.383 119.89 124.956C127.958 130.512 137.41 133.443 147.301 133.443C173.816 133.443 195.389 112.082 195.389 85.8253C195.389 59.5686 173.816 38.2067 147.301 38.2067ZM75.0342 60.7147C68.6535 54.2851 65.1833 45.7808 65.2639 36.7698C65.3454 27.7563 68.9687 19.313 75.4667 12.9951C88.8912 -0.0538808 110.538 0.137548 123.723 13.4235C136.739 26.5417 136.857 47.1941 123.991 60.4418C123.763 60.6764 123.53 60.9102 123.293 61.1399C123.249 61.1831 123.207 61.2279 123.168 61.2759C121.184 63.6741 121.16 65.8254 121.49 67.2078C121.977 69.2532 123.472 70.845 124.911 71.9544C116.47 74.5465 111.798 69.856 111.589 69.6394C111.269 69.2997 110.827 69.1156 110.375 69.1156C110.206 69.1156 110.035 69.1416 109.869 69.1946C97.4908 73.1397 84.1421 69.8919 75.0342 60.7147ZM147.301 130.107C137.727 130.107 128.596 127.159 120.896 121.582C120.308 121.157 119.51 121.16 118.924 121.593C118.787 121.695 105.876 131.082 96.137 123.278C100.779 120.977 110.37 115.101 107.73 106.834C107.705 106.755 107.675 106.679 107.638 106.606C105.19 101.624 103.283 95.2509 102.774 90.3153C102.763 90.2288 101.655 81.7016 103.685 73.9062C105.786 73.6611 107.885 73.2597 109.962 72.6542C111.429 73.8516 114.855 76.0877 119.978 76.0877C121.749 76.0877 123.727 75.8109 125.892 75.1403C124.465 77.8292 123.896 81.19 124.841 85.0604C128.112 98.4645 145.854 108.115 146.607 108.519C146.853 108.651 147.125 108.717 147.396 108.717C147.667 108.717 147.939 108.651 148.185 108.519C148.938 108.114 166.677 98.4645 169.951 85.0604C171.879 77.1654 167.531 71.372 162.367 69.1335C157.868 67.1842 151.754 67.6322 147.396 72.5988C143.036 67.6355 136.923 67.1842 132.424 69.1343C131.408 69.5748 130.426 70.1576 129.515 70.8623C129.452 70.8239 129.397 70.7758 129.328 70.7456C128.219 70.2552 125.229 68.5242 124.734 66.4282C124.515 65.4996 124.825 64.531 125.684 63.4696C125.922 63.2375 126.156 63.0021 126.385 62.7658C131.93 57.0568 135.248 50.0935 136.412 42.8722C139.954 41.9963 143.613 41.5433 147.301 41.5433C171.977 41.5433 192.053 61.4079 192.053 85.8253C192.053 110.242 171.977 130.107 147.301 130.107ZM133.751 72.1955C134.893 71.7003 136.235 71.3875 137.649 71.3875C140.501 71.3875 143.642 72.6599 146 76.2685C146.616 77.2134 148.176 77.2118 148.793 76.2685C152.318 70.871 157.595 70.7016 161.04 72.1947C164.919 73.8769 168.176 78.2618 166.709 84.2686C164.154 94.7337 150.799 103.137 147.395 105.129C143.991 103.139 130.64 94.75 128.083 84.2686C126.616 78.2618 129.872 73.8769 133.751 72.1955Z" fill="white"/>
            <path d="M121.933 36.558C123.861 28.6621 119.513 22.8695 114.35 20.6311C109.854 18.6834 103.737 19.1314 99.3782 24.0963C95.0177 19.1298 88.9042 18.6817 84.4069 20.6311C79.244 22.8695 74.8965 28.6621 76.8238 36.5571C80.0944 49.9612 97.8362 59.6117 98.5897 60.0158C98.8357 60.1477 99.107 60.2137 99.3782 60.2137C99.6495 60.2137 99.9208 60.1477 100.167 60.0158C100.92 59.6109 118.66 49.9612 121.933 36.558ZM99.3782 56.6262C95.9741 54.6321 82.618 46.2296 80.0659 35.7662C78.5988 29.7594 81.8556 25.3736 85.7338 23.6923C86.8759 23.197 88.2183 22.885 89.6316 22.885C92.4835 22.885 95.6238 24.1566 97.9812 27.7661C98.6003 28.711 100.159 28.7094 100.775 27.7661C104.301 22.3686 109.577 22.1967 113.023 23.6923C116.901 25.3736 120.158 29.7594 118.691 35.7662C116.137 46.2296 102.782 54.6321 99.3782 56.6262Z" fill="white"/>
        </g>
        <g filter="url(#filter1_d)">
            <path d="M44.8787 155.397V191.151C44.8787 198.23 42.9431 203.691 39.0718 207.535C35.2006 211.378 29.6703 213.3 22.4808 213.3C15.2914 213.3 9.74722 211.378 5.84833 207.535C1.94944 203.691 0 198.23 0 191.151V155.397L0.580686 154.817H5.47504C10.7289 154.817 13.3558 157.637 13.3558 163.278V191.317C13.3558 195.188 14.0471 198.064 15.4296 199.944C16.8122 201.825 19.1626 202.765 22.4808 202.765C25.799 202.765 28.1494 201.825 29.532 199.944C30.9146 198.064 31.6059 195.188 31.6059 191.317V155.397C33.3203 155.066 35.5324 154.9 38.2423 154.9C40.8969 154.9 43.109 155.066 44.8787 155.397V155.397ZM54.9163 211.89L59.3129 155.48C61.7462 155.038 64.622 154.817 67.9402 154.817C71.2584 154.817 74.1618 155.038 76.6505 155.48L81.5448 175.804C83.4805 184.985 84.5036 189.99 84.6142 190.819H85.1949C85.4161 189.437 86.4392 184.432 88.2642 175.804L93.2415 155.48C95.6749 155.038 98.5506 154.817 101.869 154.817C105.187 154.817 108.09 155.038 110.579 155.48L114.976 211.89C113.261 212.332 111.146 212.553 108.63 212.553C106.113 212.553 104.053 212.415 102.45 212.139L101.122 189.077C100.735 179.897 100.514 173.509 100.459 169.914H99.9609L91.7483 203.677C89.7574 204.009 87.4761 204.175 84.9045 204.175C82.3329 204.175 80.0517 204.009 78.0607 203.677L69.9311 169.914H69.3505C69.3505 174.836 69.1292 181.224 68.6868 189.077L67.4425 212.139C65.8387 212.415 63.7786 212.553 61.2623 212.553C58.746 212.553 56.6307 212.332 54.9163 211.89V211.89ZM145.586 194.303H139.033V212.056C137.263 212.387 135.051 212.553 132.396 212.553C129.686 212.553 127.474 212.387 125.76 212.056V155.812L126.341 155.231C131.152 155.121 135.148 155.038 138.328 154.983C141.508 154.927 143.927 154.9 145.586 154.9C148.628 154.9 151.407 155.314 153.923 156.144C156.439 156.973 158.582 158.218 160.352 159.877C162.122 161.536 163.491 163.596 164.458 166.057C165.426 168.518 165.91 171.352 165.91 174.56C165.91 177.768 165.412 180.602 164.417 183.063C163.422 185.524 162.039 187.584 160.269 189.243C158.5 190.902 156.357 192.16 153.84 193.017C151.324 193.875 148.573 194.303 145.586 194.303V194.303ZM139.033 165.02V184.349C140.581 184.293 141.812 184.252 142.724 184.224C143.637 184.197 144.231 184.183 144.508 184.183C146.001 184.183 147.245 183.92 148.241 183.395C149.236 182.869 150.038 182.178 150.646 181.321C151.255 180.464 151.697 179.454 151.974 178.293C152.25 177.132 152.388 175.915 152.388 174.643C152.388 173.426 152.25 172.237 151.974 171.076C151.697 169.914 151.269 168.891 150.688 168.007C150.107 167.122 149.347 166.417 148.407 165.891C147.466 165.366 146.36 165.103 145.088 165.103H141.687C141.687 165.103 140.802 165.075 139.033 165.02V165.02ZM195.608 200.857H209.959C209.959 203.069 209.821 204.963 209.545 206.539C209.268 208.115 208.383 209.47 206.89 210.604C205.397 211.738 203.434 212.305 201 212.305H182.252C179.874 212.305 177.994 211.613 176.611 210.231C175.229 208.848 174.538 206.968 174.538 204.59V155.397L175.118 154.817H180.013C185.211 154.817 187.81 157.637 187.81 163.278V201.189C190.244 200.967 192.843 200.857 195.608 200.857V200.857ZM230.947 195.299L230.864 201.272V201.354C233.408 201.244 235.454 201.189 237.003 201.189H256.248C256.248 203.235 256.165 204.811 255.999 205.917C255.336 210.175 252.515 212.305 247.538 212.305H225.472C223.094 212.305 221.227 211.613 219.872 210.231C218.518 208.848 217.84 206.968 217.84 204.59V155.978L218.421 155.397H254.174C254.506 157.001 254.672 158.743 254.672 160.624C254.672 162.504 254.285 164.467 253.511 166.513H230.864L230.947 172.486V178.293C232.385 178.238 234.265 178.21 236.588 178.21H249.28C249.778 179.758 250.027 181.528 250.027 183.519C250.027 185.51 249.778 187.335 249.28 188.994H230.947V195.299V195.299Z" fill="white"/>
        </g>
    </g>
    <defs>
        <filter id="filter0_d" x="53.9267" y="-4" width="149.463" height="149.443" filterUnits="userSpaceOnUse" color-interpolation-filters="sRGB">
            <feFlood flood-opacity="0" result="BackgroundImageFix"/>
            <feColorMatrix in="SourceAlpha" type="matrix" values="0 0 0 0 0 0 0 0 0 0 0 0 0 0 0 0 0 0 127 0" result="hardAlpha"/>
            <feOffset dy="4"/>
            <feGaussianBlur stdDeviation="4"/>
            <feComposite in2="hardAlpha" operator="out"/>
            <feColorMatrix type="matrix" values="0 0 0 0 0 0 0 0 0 0 0 0 0 0 0 0 0 0 0.25 0"/>
            <feBlend mode="normal" in2="BackgroundImageFix" result="effect1_dropShadow"/>
            <feBlend mode="normal" in="SourceGraphic" in2="effect1_dropShadow" result="shape"/>
        </filter>
        <filter id="filter1_d" x="-8" y="150.817" width="272.248" height="74.4833" filterUnits="userSpaceOnUse" color-interpolation-filters="sRGB">
            <feFlood flood-opacity="0" result="BackgroundImageFix"/>
            <feColorMatrix in="SourceAlpha" type="matrix" values="0 0 0 0 0 0 0 0 0 0 0 0 0 0 0 0 0 0 127 0" result="hardAlpha"/>
            <feOffset dy="4"/>
            <feGaussianBlur stdDeviation="4"/>
            <feComposite in2="hardAlpha" operator="out"/>
            <feColorMatrix type="matrix" values="0 0 0 0 0 0 0 0 0 0 0 0 0 0 0 0 0 0 0.25 0"/>
            <feBlend mode="normal" in2="BackgroundImageFix" result="effect1_dropShadow"/>
            <feBlend mode="normal" in="SourceGraphic" in2="effect1_dropShadow" result="shape"/>
        </filter>
        <clipPath id="clip0">
            <rect width="256.248" height="213.3" fill="white"/>
        </clipPath>
    </defs>
</svg>
