<svg width="257" height="240" viewBox="0 0 257 240" fill="none" xmlns="http://www.w3.org/2000/svg">
    <g clip-path="url(#clip0)">
        <g filter="url(#filter0_d)">
            <path d="M147.301 64.2067C143.754 64.2067 140.234 64.6132 136.803 65.3701C137.442 55.2495 133.889 44.9324 126.092 37.0734C111.625 22.4955 87.8713 22.2829 73.1402 36.6034C65.9987 43.547 62.017 52.8293 61.9282 62.7404C61.8394 72.6483 65.6525 81.9974 72.6653 89.0656C80.0627 96.5197 90.0079 100.401 100.183 100.164C98.3491 108.262 99.4185 116.398 99.4621 116.71C99.9973 121.914 102.005 128.669 104.586 133.959C106.843 141.508 92.7059 147.18 92.5617 147.236C92.0485 147.439 91.6681 147.882 91.5459 148.42C91.4246 148.958 91.5753 149.521 91.9508 149.925C102.137 160.882 116.042 153.383 119.89 150.956C127.958 156.512 137.41 159.443 147.301 159.443C173.816 159.443 195.389 138.082 195.389 111.825C195.389 85.5686 173.816 64.2067 147.301 64.2067ZM75.0342 86.7147C68.6535 80.2851 65.1833 71.7808 65.2639 62.7698C65.3454 53.7563 68.9687 45.313 75.4667 38.9951C88.8912 25.9461 110.538 26.1375 123.723 39.4235C136.739 52.5417 136.857 73.1941 123.991 86.4418C123.763 86.6764 123.53 86.9102 123.293 87.1399C123.249 87.1831 123.207 87.2279 123.168 87.2759C121.184 89.6741 121.16 91.8254 121.49 93.2078C121.977 95.2532 123.472 96.845 124.911 97.9544C116.47 100.546 111.798 95.856 111.589 95.6394C111.269 95.2997 110.827 95.1156 110.375 95.1156C110.206 95.1156 110.035 95.1416 109.869 95.1946C97.4908 99.1397 84.1421 95.8919 75.0342 86.7147ZM147.301 156.107C137.727 156.107 128.596 153.159 120.896 147.582C120.308 147.157 119.51 147.16 118.924 147.593C118.787 147.695 105.876 157.082 96.137 149.278C100.779 146.977 110.37 141.101 107.73 132.834C107.705 132.755 107.675 132.679 107.638 132.606C105.19 127.624 103.283 121.251 102.774 116.315C102.763 116.229 101.655 107.702 103.685 99.9062C105.786 99.6611 107.885 99.2597 109.962 98.6542C111.429 99.8516 114.855 102.088 119.978 102.088C121.749 102.088 123.727 101.811 125.892 101.14C124.465 103.829 123.896 107.19 124.841 111.06C128.112 124.465 145.854 134.115 146.607 134.519C146.853 134.651 147.125 134.717 147.396 134.717C147.667 134.717 147.939 134.651 148.185 134.519C148.938 134.114 166.677 124.465 169.951 111.06C171.879 103.165 167.531 97.372 162.367 95.1335C157.868 93.1842 151.754 93.6322 147.396 98.5988C143.036 93.6355 136.923 93.1842 132.424 95.1343C131.408 95.5748 130.426 96.1576 129.515 96.8623C129.452 96.8239 129.397 96.7758 129.328 96.7456C128.219 96.2552 125.229 94.5242 124.734 92.4282C124.515 91.4996 124.825 90.531 125.684 89.4696C125.922 89.2375 126.156 89.0021 126.385 88.7658C131.93 83.0568 135.248 76.0935 136.412 68.8722C139.954 67.9963 143.613 67.5433 147.301 67.5433C171.977 67.5433 192.053 87.4079 192.053 111.825C192.053 136.242 171.977 156.107 147.301 156.107ZM133.751 98.1955C134.893 97.7003 136.235 97.3875 137.649 97.3875C140.501 97.3875 143.642 98.6599 146 102.269C146.616 103.213 148.176 103.212 148.793 102.269C152.318 96.871 157.595 96.7016 161.04 98.1947C164.919 99.8769 168.176 104.262 166.709 110.269C164.154 120.734 150.799 129.137 147.395 131.129C143.991 129.139 130.64 120.75 128.083 110.269C126.616 104.262 129.872 99.8769 133.751 98.1955Z" fill="#00ADB5"/>
            <path d="M121.933 62.558C123.861 54.6621 119.513 48.8695 114.35 46.6311C109.854 44.6834 103.737 45.1314 99.3782 50.0963C95.0177 45.1298 88.9042 44.6817 84.4069 46.6311C79.244 48.8695 74.8965 54.6621 76.8238 62.5571C80.0944 75.9612 97.8362 85.6117 98.5897 86.0158C98.8357 86.1477 99.107 86.2137 99.3782 86.2137C99.6495 86.2137 99.9208 86.1477 100.167 86.0158C100.92 85.6109 118.66 75.9612 121.933 62.558ZM99.3782 82.6262C95.9741 80.6321 82.618 72.2296 80.0659 61.7662C78.5988 55.7594 81.8556 51.3736 85.7338 49.6923C86.8759 49.197 88.2183 48.885 89.6316 48.885C92.4835 48.885 95.6238 50.1566 97.9812 53.7661C98.6003 54.711 100.159 54.7094 100.775 53.7661C104.301 48.3686 109.577 48.1967 113.023 49.6923C116.901 51.3736 120.158 55.7594 118.691 61.7662C116.137 72.2296 102.782 80.6321 99.3782 82.6262Z" fill="#00ADB5"/>
        </g>
        <path d="M44.8787 181.397V217.151C44.8787 224.23 42.9431 229.691 39.0718 233.535C35.2006 237.378 29.6703 239.3 22.4808 239.3C15.2914 239.3 9.74722 237.378 5.84833 233.535C1.94944 229.691 0 224.23 0 217.151V181.397L0.580686 180.817H5.47504C10.7289 180.817 13.3558 183.637 13.3558 189.278V217.317C13.3558 221.188 14.0471 224.064 15.4296 225.944C16.8122 227.825 19.1626 228.765 22.4808 228.765C25.799 228.765 28.1494 227.825 29.532 225.944C30.9146 224.064 31.6059 221.188 31.6059 217.317V181.397C33.3203 181.066 35.5324 180.9 38.2423 180.9C40.8969 180.9 43.109 181.066 44.8787 181.397V181.397ZM54.9163 237.89L59.3129 181.48C61.7462 181.038 64.622 180.817 67.9402 180.817C71.2584 180.817 74.1618 181.038 76.6505 181.48L81.5448 201.804C83.4805 210.985 84.5036 215.99 84.6142 216.819H85.1949C85.4161 215.437 86.4392 210.432 88.2642 201.804L93.2415 181.48C95.6749 181.038 98.5506 180.817 101.869 180.817C105.187 180.817 108.09 181.038 110.579 181.48L114.976 237.89C113.261 238.332 111.146 238.553 108.63 238.553C106.113 238.553 104.053 238.415 102.45 238.139L101.122 215.077C100.735 205.897 100.514 199.509 100.459 195.914H99.9609L91.7483 229.677C89.7574 230.009 87.4761 230.175 84.9045 230.175C82.3329 230.175 80.0517 230.009 78.0607 229.677L69.9311 195.914H69.3505C69.3505 200.836 69.1292 207.224 68.6868 215.077L67.4425 238.139C65.8387 238.415 63.7786 238.553 61.2623 238.553C58.746 238.553 56.6307 238.332 54.9163 237.89V237.89ZM145.586 220.303H139.033V238.056C137.263 238.387 135.051 238.553 132.396 238.553C129.686 238.553 127.474 238.387 125.76 238.056V181.812L126.341 181.231C131.152 181.121 135.148 181.038 138.328 180.983C141.508 180.927 143.927 180.9 145.586 180.9C148.628 180.9 151.407 181.314 153.923 182.144C156.439 182.973 158.582 184.218 160.352 185.877C162.122 187.536 163.491 189.596 164.458 192.057C165.426 194.518 165.91 197.352 165.91 200.56C165.91 203.768 165.412 206.602 164.417 209.063C163.422 211.524 162.039 213.584 160.269 215.243C158.5 216.902 156.357 218.16 153.84 219.017C151.324 219.875 148.573 220.303 145.586 220.303V220.303ZM139.033 191.02V210.349C140.581 210.293 141.812 210.252 142.724 210.224C143.637 210.197 144.231 210.183 144.508 210.183C146.001 210.183 147.245 209.92 148.241 209.395C149.236 208.869 150.038 208.178 150.646 207.321C151.255 206.464 151.697 205.454 151.974 204.293C152.25 203.132 152.388 201.915 152.388 200.643C152.388 199.426 152.25 198.237 151.974 197.076C151.697 195.914 151.269 194.891 150.688 194.007C150.107 193.122 149.347 192.417 148.407 191.891C147.466 191.366 146.36 191.103 145.088 191.103H141.687C141.687 191.103 140.802 191.075 139.033 191.02V191.02ZM195.608 226.857H209.959C209.959 229.069 209.821 230.963 209.545 232.539C209.268 234.115 208.383 235.47 206.89 236.604C205.397 237.738 203.434 238.305 201 238.305H182.252C179.874 238.305 177.994 237.613 176.611 236.231C175.229 234.848 174.538 232.968 174.538 230.59V181.397L175.118 180.817H180.013C185.211 180.817 187.81 183.637 187.81 189.278V227.189C190.244 226.967 192.843 226.857 195.608 226.857V226.857ZM230.947 221.299L230.864 227.272V227.354C233.408 227.244 235.454 227.189 237.003 227.189H256.248C256.248 229.235 256.165 230.811 255.999 231.917C255.336 236.175 252.515 238.305 247.538 238.305H225.472C223.094 238.305 221.227 237.613 219.872 236.231C218.518 234.848 217.84 232.968 217.84 230.59V181.978L218.421 181.397H254.174C254.506 183.001 254.672 184.743 254.672 186.624C254.672 188.504 254.285 190.467 253.511 192.513H230.864L230.947 198.486V204.293C232.385 204.238 234.265 204.21 236.588 204.21H249.28C249.778 205.758 250.027 207.528 250.027 209.519C250.027 211.51 249.778 213.335 249.28 214.994H230.947V221.299V221.299Z" fill="#00ADB5"/>
    </g>
    <defs>
        <filter id="filter0_d" x="53.9267" y="22" width="149.463" height="149.443" filterUnits="userSpaceOnUse" color-interpolation-filters="sRGB">
            <feFlood flood-opacity="0" result="BackgroundImageFix"/>
            <feColorMatrix in="SourceAlpha" type="matrix" values="0 0 0 0 0 0 0 0 0 0 0 0 0 0 0 0 0 0 127 0" result="hardAlpha"/>
            <feOffset dy="4"/>
            <feGaussianBlur stdDeviation="4"/>
            <feComposite in2="hardAlpha" operator="out"/>
            <feColorMatrix type="matrix" values="0 0 0 0 0 0 0 0 0 0 0 0 0 0 0 0 0 0 0.25 0"/>
            <feBlend mode="normal" in2="BackgroundImageFix" result="effect1_dropShadow"/>
            <feBlend mode="normal" in="SourceGraphic" in2="effect1_dropShadow" result="shape"/>
        </filter>
        <clipPath id="clip0">
            <rect width="256.248" height="213.3" fill="white" transform="translate(0 26)"/>
        </clipPath>
    </defs>
</svg>
