<svg width="983" height="472" viewBox="0 0 983 472" fill="none" xmlns="http://www.w3.org/2000/svg">
<path d="M225.232 411.74C227.664 392.189 239.78 372.926 258.425 366.564C251.072 386.687 251.074 408.762 258.43 428.884C261.295 436.634 265.288 444.955 262.593 452.766C260.917 457.626 256.814 461.344 252.229 463.669C247.644 465.994 242.555 467.102 237.53 468.188L236.541 469.006C228.563 450.993 222.801 431.29 225.232 411.74Z" fill="#73796B"/>
<path d="M258.61 366.934C247.752 379.1 241.003 394.378 239.323 410.598C238.899 414.083 239.027 417.614 239.703 421.059C240.469 424.394 242.115 427.463 244.469 429.947C246.617 432.307 249.087 434.473 250.624 437.314C251.39 438.78 251.836 440.391 251.935 442.042C252.034 443.693 251.783 445.345 251.198 446.892C249.841 450.784 247.166 453.957 244.443 456.968C241.419 460.312 238.225 463.737 236.94 468.17C236.784 468.707 235.96 468.434 236.116 467.898C238.352 460.185 245.838 455.805 249.409 448.858C251.075 445.617 251.774 441.854 250.212 438.432C248.846 435.44 246.301 433.205 244.105 430.834C241.773 428.445 240.062 425.521 239.121 422.318C238.272 418.918 238.008 415.398 238.34 411.91C238.962 404.044 240.818 396.325 243.838 389.035C247.238 380.697 252.04 373.002 258.036 366.283C258.407 365.867 258.979 366.521 258.61 366.934Z" fill="white"/>
<path d="M239.557 405.343C236.873 404.692 234.509 403.108 232.886 400.874C231.263 398.641 230.487 395.903 230.696 393.15C230.74 392.593 231.608 392.636 231.564 393.193C231.364 395.757 232.087 398.307 233.603 400.384C235.119 402.46 237.327 403.927 239.829 404.519C240.372 404.648 240.097 405.472 239.557 405.343Z" fill="white"/>
<path d="M243.222 428.894C248.068 426 251.645 421.387 253.241 415.973C253.398 415.436 254.223 415.709 254.065 416.245C252.395 421.876 248.662 426.669 243.613 429.669C243.131 429.955 242.743 429.178 243.222 428.894Z" fill="white"/>
<path d="M248.044 381.52C249.029 381.988 250.116 382.204 251.206 382.149C252.296 382.093 253.355 381.768 254.288 381.203C254.765 380.911 255.153 381.688 254.678 381.978C253.644 382.598 252.474 382.956 251.27 383.02C250.066 383.084 248.865 382.852 247.771 382.344C247.664 382.305 247.576 382.226 247.525 382.124C247.474 382.023 247.463 381.905 247.495 381.796C247.532 381.687 247.61 381.597 247.713 381.545C247.815 381.493 247.934 381.484 248.044 381.52Z" fill="white"/>
<path d="M315.258 401.483C314.965 401.674 314.672 401.865 314.379 402.062C310.452 404.645 306.742 407.541 303.284 410.724C303.013 410.966 302.742 411.215 302.478 411.465C294.23 419.222 287.493 428.443 282.611 438.66C280.672 442.727 279.045 446.936 277.745 451.25C275.949 457.208 274.477 463.81 270.922 468.684C270.557 469.196 270.161 469.686 269.735 470.149H237.615C237.542 470.113 237.469 470.083 237.396 470.047L236.113 470.105C236.165 469.878 236.223 469.644 236.274 469.417C236.304 469.285 236.34 469.153 236.37 469.021C236.391 468.933 236.414 468.845 236.428 468.764C236.435 468.735 236.443 468.706 236.45 468.684C236.465 468.603 236.487 468.53 236.502 468.457C236.824 467.145 237.156 465.833 237.498 464.521C237.498 464.514 237.498 464.514 237.505 464.507C240.015 454.486 243.705 444.799 248.498 435.648C248.644 435.377 248.791 435.098 248.952 434.827C251.171 430.776 253.718 426.914 256.566 423.278C258.133 421.292 259.798 419.387 261.557 417.569C266.11 412.882 271.373 408.94 277.151 405.888C288.672 399.805 302.009 397.475 314.32 401.19C314.635 401.286 314.943 401.381 315.258 401.483Z" fill="#73796B"/>
<path d="M315.186 401.891C299.192 405.068 284.605 413.203 273.497 425.142C271.061 427.67 269.037 430.566 267.502 433.724C266.107 436.848 265.573 440.289 265.957 443.69C266.251 446.868 266.92 450.084 266.436 453.278C266.165 454.909 265.551 456.464 264.636 457.842C263.721 459.219 262.525 460.388 261.127 461.271C257.7 463.561 253.655 464.484 249.667 465.249C245.24 466.098 240.628 466.91 236.933 469.676C236.485 470.011 235.991 469.296 236.438 468.962C242.867 464.15 251.482 465.16 258.515 461.763C261.797 460.178 264.621 457.595 265.434 453.923C266.145 450.711 265.458 447.394 265.132 444.179C264.709 440.867 265.103 437.503 266.28 434.378C267.65 431.153 269.558 428.183 271.923 425.598C277.156 419.692 283.284 414.646 290.084 410.644C297.82 406.034 306.287 402.78 315.119 401.025C315.666 400.917 315.729 401.783 315.186 401.891Z" fill="white"/>
<path d="M276.848 421.088C275.098 418.952 274.164 416.264 274.212 413.503C274.261 410.743 275.29 408.089 277.114 406.017C277.485 405.599 278.152 406.155 277.781 406.574C276.078 408.501 275.12 410.972 275.08 413.543C275.04 416.114 275.92 418.614 277.561 420.593C277.918 421.024 277.202 421.516 276.848 421.088Z" fill="white"/>
<path d="M265.595 442.098C271.207 442.705 276.841 441.176 281.374 437.813C281.823 437.48 282.317 438.194 281.868 438.527C277.144 442.017 271.278 443.597 265.44 442.952C264.884 442.891 265.042 442.037 265.595 442.098Z" fill="white"/>
<path d="M297.968 407.175C298.473 408.143 299.21 408.97 300.114 409.582C301.017 410.194 302.058 410.572 303.144 410.682C303.701 410.736 303.542 411.59 302.989 411.536C301.79 411.409 300.64 410.99 299.641 410.316C298.641 409.642 297.822 408.733 297.254 407.67C297.192 407.574 297.169 407.458 297.189 407.346C297.21 407.234 297.272 407.134 297.364 407.066C297.458 407.001 297.575 406.976 297.688 406.996C297.801 407.017 297.902 407.081 297.968 407.175Z" fill="white"/>
<path d="M803.34 418.653C801.238 401.752 790.763 385.099 774.644 379.599C781.001 396.995 781 416.079 774.641 433.475C772.164 440.175 768.711 447.369 771.041 454.121C772.491 458.323 776.037 461.537 780.001 463.547C783.965 465.557 788.364 466.515 792.709 467.454L793.564 468.161C800.46 452.588 805.442 435.555 803.34 418.653Z" fill="#73796B"/>
<path d="M774.484 379.918C783.871 390.436 789.706 403.644 791.159 417.666C791.525 420.68 791.414 423.732 790.83 426.71C790.167 429.593 788.745 432.247 786.71 434.394C784.853 436.434 782.717 438.306 781.388 440.763C780.727 442.03 780.341 443.423 780.255 444.85C780.17 446.277 780.387 447.706 780.893 449.043C782.066 452.408 784.378 455.151 786.732 457.754C789.346 460.645 792.107 463.606 793.218 467.438C793.353 467.902 794.066 467.666 793.931 467.203C791.998 460.535 785.526 456.748 782.439 450.743C780.999 447.941 780.394 444.688 781.745 441.73C782.925 439.143 785.126 437.211 787.024 435.161C789.04 433.095 790.519 430.567 791.333 427.798C792.067 424.859 792.295 421.816 792.008 418.8C791.47 412 789.866 405.327 787.255 399.025C784.316 391.817 780.164 385.164 774.981 379.355C774.66 378.996 774.165 379.561 774.484 379.918Z" fill="white"/>
<path d="M790.956 413.124C793.276 412.561 795.32 411.191 796.723 409.26C798.126 407.329 798.797 404.962 798.616 402.582C798.578 402.101 797.828 402.138 797.867 402.62C798.039 404.836 797.414 407.041 796.103 408.836C794.793 410.631 792.884 411.899 790.721 412.411C790.251 412.523 790.489 413.235 790.956 413.124Z" fill="white"/>
<path d="M787.788 433.483C783.598 430.982 780.506 426.993 779.126 422.313C778.99 421.849 778.277 422.085 778.413 422.548C779.858 427.416 783.085 431.56 787.45 434.154C787.866 434.401 788.202 433.729 787.788 433.483Z" fill="white"/>
<path d="M783.619 392.528C782.767 392.933 781.828 393.12 780.886 393.072C779.943 393.024 779.028 392.743 778.221 392.254C777.808 392.002 777.473 392.674 777.884 392.924C778.777 393.461 779.789 393.77 780.83 393.825C781.871 393.88 782.909 393.679 783.855 393.241C783.947 393.207 784.023 393.139 784.068 393.051C784.112 392.963 784.121 392.861 784.093 392.767C784.062 392.672 783.994 392.594 783.905 392.55C783.817 392.505 783.714 392.497 783.619 392.528Z" fill="white"/>
<path d="M725.511 409.787C725.765 409.952 726.018 410.116 726.272 410.287C729.666 412.52 732.874 415.024 735.863 417.776C736.098 417.985 736.332 418.2 736.56 418.416C743.691 425.122 749.515 433.094 753.735 441.926C755.412 445.442 756.818 449.081 757.942 452.81C759.494 457.961 760.768 463.669 763.84 467.882C764.156 468.325 764.499 468.749 764.867 469.149H792.635C792.698 469.118 792.761 469.092 792.825 469.061L793.933 469.111C793.889 468.915 793.838 468.712 793.794 468.516C793.769 468.402 793.737 468.288 793.712 468.174C793.693 468.098 793.674 468.022 793.661 467.952C793.655 467.927 793.648 467.901 793.642 467.882C793.629 467.813 793.61 467.749 793.597 467.686C793.319 466.552 793.032 465.418 792.736 464.284C792.736 464.277 792.736 464.277 792.73 464.271C790.56 455.608 787.37 447.234 783.227 439.322C783.1 439.088 782.973 438.847 782.834 438.613C780.915 435.111 778.714 431.772 776.251 428.628C774.897 426.911 773.457 425.264 771.937 423.693C768 419.641 763.451 416.233 758.455 413.594C748.496 408.336 736.966 406.321 726.322 409.533C726.05 409.616 725.784 409.698 725.511 409.787Z" fill="#73796B"/>
<path d="M725.574 410.139C739.401 412.886 752.012 419.919 761.614 430.24C763.721 432.425 765.47 434.929 766.797 437.659C768.004 440.36 768.465 443.335 768.133 446.275C767.879 449.022 767.301 451.803 767.719 454.564C767.954 455.974 768.484 457.319 769.275 458.509C770.066 459.7 771.1 460.71 772.309 461.474C775.271 463.454 778.768 464.252 782.216 464.913C786.043 465.647 790.03 466.349 793.225 468.74C793.612 469.029 794.039 468.412 793.652 468.123C788.095 463.963 780.647 464.836 774.567 461.9C771.73 460.529 769.288 458.296 768.585 455.121C767.971 452.345 768.565 449.477 768.846 446.698C769.212 443.835 768.871 440.926 767.853 438.225C766.67 435.436 765.02 432.869 762.975 430.634C758.452 425.529 753.153 421.166 747.275 417.706C740.587 413.721 733.267 410.908 725.631 409.391C725.159 409.297 725.104 410.046 725.574 410.139Z" fill="white"/>
<path d="M758.718 426.735C760.231 424.889 761.038 422.565 760.996 420.178C760.954 417.792 760.065 415.498 758.487 413.706C758.167 413.345 757.59 413.826 757.911 414.188C759.383 415.853 760.211 417.99 760.246 420.212C760.281 422.435 759.52 424.597 758.101 426.307C757.793 426.68 758.412 427.105 758.718 426.735Z" fill="white"/>
<path d="M768.446 444.899C763.595 445.424 758.724 444.101 754.805 441.194C754.417 440.906 753.99 441.524 754.377 441.812C758.461 444.829 763.533 446.195 768.58 445.637C769.061 445.584 768.924 444.846 768.446 444.899Z" fill="white"/>
<path d="M740.459 414.708C740.023 415.544 739.385 416.259 738.604 416.788C737.823 417.317 736.923 417.644 735.984 417.739C735.503 417.786 735.64 418.524 736.118 418.477C737.155 418.367 738.149 418.005 739.013 417.423C739.877 416.84 740.586 416.055 741.076 415.135C741.13 415.052 741.15 414.952 741.132 414.855C741.115 414.758 741.061 414.672 740.982 414.613C740.9 414.557 740.799 414.535 740.701 414.553C740.603 414.571 740.516 414.626 740.459 414.708Z" fill="white"/>
<path d="M861.3 34.1445H207.812C207.56 34.1445 207.319 34.0446 207.141 33.8667C206.963 33.6888 206.863 33.4476 206.863 33.196C206.863 32.9445 206.963 32.7032 207.141 32.5254C207.319 32.3475 207.56 32.2476 207.812 32.2476H861.3C861.551 32.2476 861.792 32.3475 861.97 32.5254C862.148 32.7032 862.248 32.9445 862.248 33.196C862.248 33.4476 862.148 33.6888 861.97 33.8667C861.792 34.0446 861.551 34.1445 861.3 34.1445Z" fill="#CACACA" fill-opacity="0.48"/>
<path d="M229.16 20.8661C234.922 20.8661 239.593 16.195 239.593 10.433C239.593 4.67103 234.922 0 229.16 0C223.398 0 218.727 4.67103 218.727 10.433C218.727 16.195 223.398 20.8661 229.16 20.8661Z" fill="#3F3D56"/>
<path d="M265.201 20.8661C270.963 20.8661 275.634 16.195 275.634 10.433C275.634 4.67103 270.963 0 265.201 0C259.439 0 254.768 4.67103 254.768 10.433C254.768 16.195 259.439 20.8661 265.201 20.8661Z" fill="#3F3D56"/>
<path d="M301.242 20.8661C307.004 20.8661 311.675 16.195 311.675 10.433C311.675 4.67103 307.004 0 301.242 0C295.48 0 290.809 4.67103 290.809 10.433C290.809 16.195 295.48 20.8661 301.242 20.8661Z" fill="#3F3D56"/>
<path d="M839.705 6.38157H814.097C813.594 6.38157 813.111 6.18172 812.756 5.82598C812.4 5.47024 812.2 4.98775 812.2 4.48465C812.2 3.98156 812.4 3.49907 812.756 3.14333C813.111 2.78759 813.594 2.58774 814.097 2.58774H839.705C839.955 2.58717 840.202 2.63581 840.433 2.73089C840.663 2.82596 840.873 2.96559 841.049 3.14179C841.226 3.31799 841.366 3.5273 841.462 3.75773C841.557 3.98815 841.607 4.23518 841.607 4.48465C841.607 4.73413 841.557 4.98115 841.462 5.21158C841.366 5.44201 841.226 5.65132 841.049 5.82752C840.873 6.00372 840.663 6.14335 840.433 6.23842C840.202 6.3335 839.955 6.38214 839.705 6.38157Z" fill="#3F3D56"/>
<path d="M839.705 13.495H814.097C813.594 13.495 813.111 13.2951 812.756 12.9394C812.4 12.5837 812.2 12.1012 812.2 11.5981C812.2 11.095 812.4 10.6125 812.756 10.2568C813.111 9.90102 813.594 9.70116 814.097 9.70116H839.705C840.208 9.70116 840.691 9.90102 841.047 10.2568C841.402 10.6125 841.602 11.095 841.602 11.5981C841.602 12.1012 841.402 12.5837 841.047 12.9394C840.691 13.2951 840.208 13.495 839.705 13.495Z" fill="#3F3D56"/>
<path d="M839.705 20.6084H814.097C813.594 20.6084 813.111 20.4086 812.756 20.0528C812.4 19.6971 812.2 19.2146 812.2 18.7115C812.2 18.2084 812.4 17.7259 812.756 17.3702C813.111 17.0145 813.594 16.8146 814.097 16.8146H839.705C839.955 16.814 840.202 16.8627 840.433 16.9578C840.663 17.0528 840.873 17.1925 841.049 17.3687C841.226 17.5449 841.366 17.7542 841.462 17.9846C841.557 18.215 841.607 18.462 841.607 18.7115C841.607 18.961 841.557 19.208 841.462 19.4385C841.366 19.6689 841.226 19.8782 841.049 20.0544C840.873 20.2306 840.663 20.3702 840.433 20.4653C840.202 20.5604 839.955 20.609 839.705 20.6084Z" fill="#3F3D56"/>
<path d="M841.602 74.8162H705.024V156.703H841.602V74.8162Z" fill="white"/>
<path d="M814.354 194.322H733.091C732.076 194.32 731.104 193.916 730.388 193.199C729.672 192.481 729.269 191.508 729.269 190.494C729.269 189.48 729.672 188.508 730.388 187.79C731.104 187.072 732.076 186.668 733.091 186.667H814.354C815.369 186.667 816.343 187.07 817.061 187.788C817.779 188.506 818.182 189.479 818.182 190.494C818.182 191.509 817.779 192.483 817.061 193.201C816.343 193.919 815.369 194.322 814.354 194.322Z" fill="#030303"/>
<path d="M801.252 181.22H746.193C745.69 181.22 745.191 181.122 744.726 180.93C744.261 180.738 743.838 180.456 743.482 180.101C743.126 179.745 742.844 179.323 742.651 178.858C742.458 178.393 742.359 177.895 742.359 177.392C742.359 176.889 742.458 176.391 742.651 175.926C742.844 175.461 743.126 175.039 743.482 174.683C743.838 174.328 744.261 174.046 744.726 173.854C745.191 173.662 745.69 173.564 746.193 173.564H801.252C801.755 173.564 802.253 173.662 802.719 173.854C803.184 174.046 803.606 174.328 803.962 174.683C804.318 175.039 804.601 175.461 804.794 175.926C804.987 176.391 805.086 176.889 805.086 177.392C805.086 177.895 804.987 178.393 804.794 178.858C804.601 179.323 804.318 179.745 803.962 180.101C803.606 180.456 803.184 180.738 802.719 180.93C802.253 181.122 801.755 181.22 801.252 181.22Z" fill="black"/>
<path d="M841.602 223.724H705.024V305.611H841.602V223.724Z" fill="white"/>
<path d="M814.354 343.23H733.091C732.075 343.23 731.102 342.827 730.384 342.109C729.666 341.391 729.263 340.417 729.263 339.402C729.263 338.387 729.666 337.413 730.384 336.696C731.102 335.978 732.075 335.575 733.091 335.575H814.354C815.369 335.575 816.343 335.978 817.061 336.696C817.779 337.413 818.182 338.387 818.182 339.402C818.182 340.417 817.779 341.391 817.061 342.109C816.343 342.827 815.369 343.23 814.354 343.23Z" fill="#1B0000"/>
<path d="M801.252 330.128H746.193C745.178 330.128 744.204 329.724 743.486 329.006C742.769 328.289 742.365 327.315 742.365 326.3C742.365 325.285 742.769 324.311 743.486 323.593C744.204 322.876 745.178 322.472 746.193 322.472H801.252C802.267 322.472 803.241 322.876 803.958 323.593C804.676 324.311 805.08 325.285 805.08 326.3C805.08 327.315 804.676 328.289 803.958 329.006C803.241 329.724 802.267 330.128 801.252 330.128Z" fill="#413636" fill-opacity="0.96"/>
<path d="M634.988 132.23H222.725C221.71 132.23 220.736 131.827 220.018 131.109C219.3 130.391 218.897 129.417 218.897 128.402C218.897 127.387 219.3 126.414 220.018 125.696C220.736 124.978 221.71 124.575 222.725 124.575H634.988C636.004 124.575 636.977 124.978 637.695 125.696C638.413 126.414 638.816 127.387 638.816 128.402C638.816 129.417 638.413 130.391 637.695 131.109C636.977 131.827 636.004 132.23 634.988 132.23Z" fill="white"/>
<path d="M634.988 161.23H222.725C221.71 161.23 220.736 160.827 220.018 160.109C219.3 159.391 218.897 158.417 218.897 157.402C218.897 156.387 219.3 155.414 220.018 154.696C220.736 153.978 221.71 153.575 222.725 153.575H634.988C636.004 153.575 636.977 153.978 637.695 154.696C638.413 155.414 638.816 156.387 638.816 157.402C638.816 158.417 638.413 159.391 637.695 160.109C636.977 160.827 636.004 161.23 634.988 161.23Z" fill="white"/>
<path d="M634.988 190.23H222.725C221.71 190.23 220.736 189.827 220.018 189.109C219.3 188.391 218.897 187.417 218.897 186.402C218.897 185.387 219.3 184.414 220.018 183.696C220.736 182.978 221.71 182.575 222.725 182.575H634.988C636.004 182.575 636.977 182.978 637.695 183.696C638.413 184.414 638.816 185.387 638.816 186.402C638.816 187.417 638.413 188.391 637.695 189.109C636.977 189.827 636.004 190.23 634.988 190.23Z" fill="white"/>
<path d="M634.988 219.23H222.725C221.71 219.23 220.736 218.827 220.018 218.109C219.3 217.391 218.897 216.417 218.897 215.402C218.897 214.387 219.3 213.414 220.018 212.696C220.736 211.978 221.71 211.575 222.725 211.575H634.988C636.004 211.575 636.977 211.978 637.695 212.696C638.413 213.414 638.816 214.387 638.816 215.402C638.816 216.417 638.413 217.391 637.695 218.109C636.977 218.827 636.004 219.23 634.988 219.23Z" fill="white"/>
<path d="M634.988 277.23H222.725C221.71 277.23 220.736 276.827 220.018 276.109C219.3 275.391 218.897 274.417 218.897 273.402C218.897 272.387 219.3 271.413 220.018 270.696C220.736 269.978 221.71 269.575 222.725 269.575H634.988C636.004 269.575 636.977 269.978 637.695 270.696C638.413 271.413 638.816 272.387 638.816 273.402C638.816 274.417 638.413 275.391 637.695 276.109C636.977 276.827 636.004 277.23 634.988 277.23Z" fill="white"/>
<path d="M634.988 306.23H222.725C221.71 306.23 220.736 305.827 220.018 305.109C219.3 304.391 218.897 303.417 218.897 302.402C218.897 301.387 219.3 300.413 220.018 299.696C220.736 298.978 221.71 298.575 222.725 298.575H634.988C636.004 298.575 636.977 298.978 637.695 299.696C638.413 300.413 638.816 301.387 638.816 302.402C638.816 303.417 638.413 304.391 637.695 305.109C636.977 305.827 636.004 306.23 634.988 306.23Z" fill="white"/>
<path d="M566.886 103.128H290.827C290.324 103.128 289.826 103.03 289.36 102.838C288.895 102.646 288.473 102.364 288.117 102.009C287.76 101.653 287.478 101.231 287.285 100.766C287.092 100.301 286.993 99.8031 286.993 99.2999C286.993 98.7968 287.092 98.2986 287.285 97.8338C287.478 97.369 287.76 96.9467 288.117 96.5912C288.473 96.2357 288.895 95.9539 289.36 95.7619C289.826 95.5699 290.324 95.4715 290.827 95.4723H566.886C567.389 95.4715 567.888 95.5699 568.353 95.7619C568.818 95.9539 569.241 96.2357 569.597 96.5912C569.953 96.9467 570.235 97.369 570.428 97.8338C570.621 98.2986 570.72 98.7968 570.72 99.2999C570.72 99.8031 570.621 100.301 570.428 100.766C570.235 101.231 569.953 101.653 569.597 102.009C569.241 102.364 568.818 102.646 568.353 102.838C567.888 103.03 567.389 103.128 566.886 103.128Z" fill="white"/>
<path d="M672.663 462.791H680.633L684.425 432.047L672.662 432.048L672.663 462.791Z" fill="#FFB6B6"/>
<path d="M670.63 460.189L686.327 460.188C688.98 460.188 691.524 461.242 693.4 463.118C695.276 464.994 696.33 467.538 696.33 470.191V470.516L670.63 470.517V460.189Z" fill="#2F2E41"/>
<path d="M631.925 462.791H639.895L643.687 432.047L631.923 432.048L631.925 462.791Z" fill="#FFB6B6"/>
<path d="M629.892 460.189L645.588 460.188H645.589C648.242 460.188 650.786 461.242 652.662 463.118C654.538 464.994 655.592 467.538 655.592 470.191V470.516L629.892 470.517V460.189Z" fill="#2F2E41"/>
<path d="M724.998 120.202C724.999 118.865 724.703 117.543 724.132 116.334C723.561 115.124 722.728 114.056 721.695 113.206C720.662 112.356 719.453 111.746 718.156 111.42C716.859 111.093 715.505 111.058 714.193 111.317C712.88 111.576 711.641 112.122 710.565 112.917C709.489 113.712 708.603 114.736 707.97 115.914C707.337 117.093 706.973 118.397 706.904 119.733C706.835 121.069 707.064 122.404 707.572 123.641L689.256 152.621L677.853 175.6L687.263 183.952L694.504 176.33L718.187 128.964C720.134 128.467 721.86 127.337 723.094 125.75C724.327 124.164 724.997 122.212 724.998 120.202Z" fill="#FFB6B6"/>
<path d="M629.942 215.258L611.988 212.476L607.711 244.957L584.408 295.102C582.888 296.049 581.683 297.426 580.946 299.058C580.208 300.69 579.971 302.504 580.264 304.271C580.557 306.038 581.367 307.678 582.592 308.984C583.817 310.291 585.402 311.204 587.147 311.61C588.891 312.016 590.717 311.896 592.393 311.264C594.069 310.633 595.52 309.519 596.563 308.063C597.605 306.607 598.193 304.874 598.252 303.084C598.31 301.294 597.837 299.527 596.891 298.006L621.255 254.011L629.942 215.258Z" fill="#FFB6B6"/>
<path d="M639.891 269.369C639.891 269.369 624.103 283.969 626.109 320.679L630.532 377.391L629.417 456.445L645.633 455.171L659.801 322.687L673.38 377.004L668.505 449.362L684.126 449.724L700.539 367.951L696.649 307.336L690.114 269.369H639.891Z" fill="#2F2E41"/>
<path d="M656.783 183.874L619.062 194.436L638.242 251.902L635.375 273.885L693.536 274.262L680.066 231.771C680.066 231.771 687.625 216.227 678.994 205.331L656.783 183.874Z" fill="#B19650"/>
<path d="M652.257 192.927L656.783 183.874C656.783 183.874 656.637 181.599 667.272 180.474L679.75 168.071L691.172 179.455L671.871 208.016L652.257 192.927Z" fill="#B19650"/>
<path d="M634.151 201.98C634.151 201.98 620.571 186.892 613.027 194.436C605.483 201.98 609.351 225.969 609.351 225.969L632.849 229.615L634.151 201.98Z" fill="#B19650"/>
<path d="M641.038 143.982C664.165 144.086 664.163 179.248 641.037 179.349C617.912 179.245 617.914 144.083 641.038 143.982Z" fill="#FFB6B6"/>
<path d="M643.613 160.497C646.739 162.337 649.987 164.22 653.593 164.615C657.2 165.01 661.282 163.492 662.729 160.165C663.182 159.013 663.422 157.788 663.438 156.549C663.755 150.231 661.569 144.043 657.353 139.326C655.238 137.014 652.648 135.185 649.762 133.965C646.875 132.744 643.759 132.161 640.627 132.254C634.651 132.513 629.129 135.342 623.827 138.109C618.951 140.654 613.802 143.458 611.153 148.278C607.227 155.42 610.089 164.165 610.851 172.28C611.386 178.33 610.697 184.427 608.824 190.205C606.951 195.984 603.933 201.325 599.95 205.912L632.854 209.029C636.858 209.409 640.942 209.784 644.867 208.907C648.254 208.151 651.372 206.491 653.89 204.104C656.409 201.717 658.233 198.692 659.17 195.351C660.107 192.009 660.121 188.477 659.21 185.129C658.3 181.78 656.499 178.741 653.999 176.334C649.328 171.838 641.817 168.655 641.633 162.174" fill="#2F2E41"/>
<path d="M888.827 462.055H880.097L875.944 428.383H888.828L888.827 462.055Z" fill="#9F616A"/>
<path d="M891.053 470.517L862.905 470.516V470.16C862.905 467.254 864.059 464.468 866.114 462.413C868.169 460.359 870.955 459.204 873.861 459.204H873.862L891.054 459.205L891.053 470.517Z" fill="#2F2E41"/>
<path d="M970.002 462.055H961.272L957.119 428.383H970.003L970.002 462.055Z" fill="#9F616A"/>
<path d="M972.228 470.517L944.08 470.516V470.16C944.08 467.254 945.234 464.468 947.289 462.413C949.343 460.359 952.13 459.204 955.036 459.204L972.228 459.205V470.517Z" fill="#2F2E41"/>
<path d="M885.347 291.179C885.347 291.179 878.02 311.067 879.067 319.442C880.113 327.816 871.739 386.436 872.786 391.67C873.833 396.904 871.739 423.073 872.786 427.26C873.833 431.448 869.848 436.449 871.942 440.636C874.035 444.823 876.973 453.43 876.973 453.43L890.581 452.383L892.675 440.869C892.675 440.869 898.956 439.822 897.909 433.541C896.862 427.26 903.143 385.389 903.143 385.389L920.938 326.769L946.061 380.155C946.061 380.155 947.108 417.839 950.248 422.027C953.388 426.214 947.108 437.728 950.248 441.915C953.388 446.103 956.529 453.43 956.529 453.43H972.23V445.056C972.23 445.056 981.652 439.822 972.23 424.12L965.864 329.824L959.584 286.906L885.347 291.179Z" fill="#2F2E41"/>
<path d="M924.37 159.555C935.168 159.555 943.921 150.802 943.921 140.004C943.921 129.206 935.168 120.453 924.37 120.453C913.572 120.453 904.818 129.206 904.818 140.004C904.818 150.802 913.572 159.555 924.37 159.555Z" fill="#A0616A"/>
<path d="M907.732 138.655C909.112 142.18 910.491 145.705 911.871 149.23C913.567 153.563 915.509 158.199 919.485 160.617C924.393 163.603 930.948 162.147 935.697 158.913C939.967 156.004 943.245 151.858 945.091 147.031C946.936 142.205 947.261 136.929 946.02 131.913C944.78 126.896 942.034 122.38 938.151 118.97C934.269 115.56 929.436 113.419 924.302 112.836L924.105 116.376L919.762 112.735C919.441 113.286 918.999 113.757 918.47 114.113C917.94 114.469 917.337 114.7 916.706 114.79C916.074 114.879 915.43 114.824 914.823 114.629C914.216 114.434 913.66 114.104 913.199 113.663C914.34 116.028 913.023 118.912 911.122 120.724C908.786 122.949 902.104 125.624 902.382 129.602C902.567 132.257 906.655 135.904 907.732 138.655Z" fill="#2F2E41"/>
<path d="M978.188 320.1C978.862 319.094 979.307 317.954 979.492 316.758C979.677 315.562 979.598 314.339 979.26 313.177C978.922 312.015 978.333 310.942 977.535 310.032C976.737 309.122 975.749 308.398 974.641 307.911L975.031 288.998L963.595 285.957L963.419 312.675C962.724 314.59 962.757 316.694 963.51 318.587C964.263 320.481 965.685 322.032 967.505 322.947C969.326 323.863 971.419 324.078 973.388 323.553C975.357 323.029 977.065 321.8 978.188 320.1Z" fill="#9F616A"/>
<path d="M938.893 171.639C938.893 171.639 923.743 164.064 909.434 169.114C895.125 174.164 887.549 180.056 887.549 180.056L896.808 228.875L884.182 294.528C884.182 294.528 948.994 289.478 954.886 294.528C960.778 299.579 960.778 288.636 960.778 288.636L955.727 226.35L964.986 186.79L938.893 171.639Z" fill="#B19650"/>
<path d="M874.947 321.22C875.876 320.444 876.624 319.474 877.137 318.378C877.651 317.282 877.918 316.087 877.92 314.877C877.921 313.667 877.657 312.471 877.147 311.373C876.636 310.276 875.891 309.304 874.965 308.526L880.65 290.482L870.528 284.353L862.857 309.947C861.653 311.59 861.093 313.619 861.284 315.647C861.476 317.676 862.405 319.564 863.895 320.953C865.385 322.343 867.333 323.138 869.371 323.187C871.408 323.236 873.392 322.536 874.947 321.22Z" fill="#9F616A"/>
<path d="M893.441 180.056H887.549C887.549 180.056 878.29 185.948 878.29 194.365C878.29 202.782 864.823 301.262 864.823 301.262L879.132 303.787L891.758 234.767L901.016 216.25L893.441 180.056Z" fill="#3F3D56"/>
<path d="M948.994 186.79H964.986C964.986 186.79 970.037 191.84 972.562 203.624C975.087 215.408 977.612 261.702 977.612 261.702L975.928 303.787H963.303L961.619 249.076L953.202 213.725L948.994 186.79Z" fill="#3F3D56"/>
<path d="M207.681 242.803C207.278 242.999 206.89 243.226 206.522 243.483L169.08 228.847L167.596 219.194L152.736 219.53L153.703 236.873C153.781 238.275 154.311 239.613 155.214 240.687C156.118 241.76 157.345 242.512 158.712 242.83L203.264 253.165C203.808 254.805 204.839 256.241 206.219 257.281C207.599 258.321 209.263 258.916 210.989 258.987C212.716 259.058 214.423 258.602 215.884 257.68C217.345 256.757 218.49 255.412 219.168 253.822C219.845 252.233 220.023 250.474 219.677 248.781C219.331 247.089 218.478 245.541 217.231 244.345C215.984 243.149 214.402 242.361 212.696 242.085C210.991 241.81 209.241 242.06 207.681 242.803Z" fill="#9F616A"/>
<path d="M151.465 460.884L161.403 460.883L166.13 422.552H151.463L151.465 460.884Z" fill="#9F616A"/>
<path d="M148.93 457.639L168.501 457.638H168.502C171.81 457.639 174.982 458.953 177.321 461.292C179.66 463.631 180.974 466.803 180.974 470.111V470.516L148.93 470.517V457.639Z" fill="#2F2E41"/>
<path d="M103.639 460.884L113.577 460.883L118.305 422.552H103.638L103.639 460.884Z" fill="#9F616A"/>
<path d="M101.104 457.639L120.675 457.638H120.676C123.984 457.639 127.156 458.953 129.495 461.292C131.834 463.631 133.148 466.803 133.149 470.111V470.516L101.105 470.517L101.104 457.639Z" fill="#2F2E41"/>
<path d="M109.402 168.634C106.572 156.948 104.174 143.767 109.511 133.005C113.215 125.537 126.915 123.022 134.769 125.712C142.623 128.403 148.301 135.702 150.799 143.66C153.296 151.619 153.006 160.194 151.917 168.468C137.473 168.19 123.029 167.913 109.402 168.634Z" fill="#2F2E41"/>
<path d="M133.777 168.631C143.079 168.631 150.62 161.09 150.62 151.787C150.62 142.485 143.079 134.944 133.777 134.944C124.474 134.944 116.933 142.485 116.933 151.787C116.933 161.09 124.474 168.631 133.777 168.631Z" fill="#9F616A"/>
<path d="M113.186 148.318C113.132 145.483 113.649 142.666 114.706 140.035C115.762 137.404 117.337 135.012 119.336 133.001C121.335 130.991 123.718 129.402 126.343 128.331C128.968 127.259 131.782 126.727 134.617 126.764C137.452 126.801 140.251 127.408 142.846 128.548C145.442 129.689 147.783 131.339 149.728 133.402C151.673 135.465 153.184 137.897 154.171 140.555C155.158 143.213 155.6 146.043 155.472 148.875C141.055 148.906 126.639 148.936 113.186 148.318Z" fill="#2F2E41"/>
<path d="M119.798 230.771L112.754 242.512C112.754 242.512 93.4623 278.694 94.6096 308.685L98.8788 346.041L94.1936 355.208L97.3297 371.336L91.5055 382.89L102.034 438.668L102.482 450.765H119.507L118.611 438.444L125.779 384.105L137.875 326.086L144.148 376.17L141.908 388.714L144.82 399.243L148.852 431.724L149.3 447.405L164.757 449.197L170.581 391.178L173.941 363.496L155.933 240.756L119.798 230.771Z" fill="black"/>
<path d="M117.564 174.083L107.077 178.537L101.187 202.914L113.588 234.674L108.952 250.543C122.986 274.549 140.356 278.037 160.797 262.642C156.471 250.496 157.096 238.007 161.407 225.262C161.407 225.262 172.16 215.249 164.648 202.232L157.483 182.784L148.612 178.348L117.564 174.083Z" fill="#B19650"/>
<path d="M155.417 187.023L157.798 182.602C157.798 182.602 164.076 183.546 166.64 191.105C169.205 198.663 169.871 229.196 169.871 229.196L156.437 229.877L155.417 187.023Z" fill="#B19650"/>
<path d="M483.421 186.666L84.2024 289.552C83.2208 289.801 82.1806 289.651 81.3095 289.134C80.4384 288.618 79.8074 287.777 79.5547 286.797C79.302 285.816 79.4482 284.776 79.9612 283.902C80.4742 283.029 81.3123 282.395 82.2919 282.139L481.511 179.253C481.998 179.125 482.506 179.096 483.005 179.165C483.503 179.234 483.984 179.402 484.418 179.657C484.852 179.912 485.231 180.251 485.534 180.653C485.837 181.055 486.058 181.513 486.184 182.001C486.31 182.489 486.338 182.996 486.267 183.495C486.196 183.994 486.027 184.473 485.771 184.907C485.514 185.34 485.174 185.718 484.771 186.02C484.368 186.322 483.909 186.541 483.421 186.666Z" fill="#000101"/>
<path d="M102.789 290.655C103.928 290.088 104.93 289.278 105.723 288.282C106.515 287.286 107.08 286.128 107.377 284.89C107.674 283.652 107.696 282.364 107.441 281.117C107.186 279.87 106.661 278.693 105.903 277.671L112.414 214.006H98.3421L93.1672 276.171C91.534 277.56 90.4668 279.499 90.1678 281.621C89.8687 283.743 90.3586 285.902 91.5445 287.687C92.7305 289.472 94.5302 290.761 96.6026 291.308C98.6749 291.855 100.876 291.623 102.789 290.655Z" fill="#9F616A"/>
<path d="M115.647 185.738L110.715 178.766C110.715 178.766 102.043 172.886 97.6215 186.418C93.2002 199.95 93.8804 225.02 93.8804 225.02L110.716 231.992L115.647 185.738Z" fill="#B19650"/>
<path d="M382 471.149H1C0.734784 471.149 0.480429 471.044 0.292892 470.856C0.105356 470.669 0 470.415 0 470.149C0 469.884 0.105356 469.63 0.292892 469.442C0.480429 469.255 0.734784 469.149 1 469.149H382C382.265 469.149 382.52 469.255 382.707 469.442C382.895 469.63 383 469.884 383 470.149C383 470.415 382.895 470.669 382.707 470.856C382.52 471.044 382.265 471.149 382 471.149Z" fill="#CACACA"/>
<path d="M982 471.149H601C600.735 471.149 600.48 471.044 600.293 470.856C600.105 470.669 600 470.415 600 470.149C600 469.884 600.105 469.63 600.293 469.442C600.48 469.255 600.735 469.149 601 469.149H982C982.265 469.149 982.52 469.255 982.707 469.442C982.895 469.63 983 469.884 983 470.149C983 470.415 982.895 470.669 982.707 470.856C982.52 471.044 982.265 471.149 982 471.149Z" fill="#CACACA"/>
</svg>

